<svg width="866" height="683" viewBox="0 0 866 683" fill="none" xmlns="http://www.w3.org/2000/svg">
<g clip-path="url(#clip0_417_2)">
<path d="M866 597.14H-0.240234V597.57H866V597.14Z" fill="#EBEBEB"/>
<path d="M148.03 613.63H90.6499V614.06H148.03V613.63Z" fill="#EBEBEB"/>
<path d="M311.31 608.94H251.54V609.37H311.31V608.94Z" fill="#EBEBEB"/>
<path d="M227.58 622H131.57V622.43H227.58V622Z" fill="#EBEBEB"/>
<path d="M777.36 623.59H702.53V624.02H777.36V623.59Z" fill="#EBEBEB"/>
<path d="M681.19 612.77H641.52V613.2H681.19V612.77Z" fill="#EBEBEB"/>
<path d="M500.99 619.71H338.69V620.14H500.99V619.71Z" fill="#EBEBEB"/>
<path d="M410.36 519.87H75.84C73.2291 519.857 70.7294 518.812 68.8861 516.963C67.0427 515.114 66.0052 512.611 66 510V39.7302C66.0237 37.1245 67.0748 34.6335 68.9248 32.7985C70.7748 30.9635 73.2743 29.9327 75.88 29.9302H410.36C412.983 29.9302 415.499 30.9722 417.353 32.8269C419.208 34.6816 420.25 37.1972 420.25 39.8202V39.8202V510C420.245 512.62 419.2 515.13 417.346 516.981C415.492 518.831 412.98 519.87 410.36 519.87V519.87ZM75.84 30.2702C73.3328 30.2728 70.9292 31.2707 69.1572 33.0445C67.3853 34.8183 66.39 37.223 66.39 39.7302V510C66.39 512.507 67.3853 514.912 69.1572 516.686C70.9292 518.46 73.3328 519.458 75.84 519.46H410.36C412.867 519.455 415.27 518.457 417.043 516.684C418.816 514.911 419.815 512.508 419.82 510V39.7302C419.815 37.2229 418.816 34.8197 417.043 33.0468C415.27 31.2738 412.867 30.2755 410.36 30.2702H75.84Z" fill="#EBEBEB"/>
<path d="M785.11 519.87H450.57C447.949 519.865 445.436 518.821 443.583 516.968C441.729 515.114 440.685 512.602 440.68 509.98V39.7302C440.707 37.1236 441.76 34.6326 443.611 32.7979C445.463 30.9631 447.964 29.9327 450.57 29.9302H785.11C787.712 29.938 790.207 30.9711 792.052 32.8055C793.898 34.64 794.946 37.128 794.97 39.7302V510C794.965 512.615 793.925 515.12 792.077 516.97C790.229 518.82 787.724 519.862 785.11 519.87V519.87ZM450.57 30.2702C448.063 30.2755 445.66 31.2738 443.887 33.0468C442.114 34.8197 441.115 37.2229 441.11 39.7302V510C441.115 512.508 442.114 514.911 443.887 516.684C445.66 518.457 448.063 519.455 450.57 519.46H785.11C787.617 519.455 790.021 518.457 791.794 516.684C793.567 514.911 794.565 512.508 794.57 510V39.7302C794.565 37.2229 793.567 34.8197 791.794 33.0468C790.021 31.2738 787.617 30.2755 785.11 30.2702H450.57Z" fill="#EBEBEB"/>
<path d="M351.01 591.77H257.21V597.14H351.01V591.77Z" fill="#E0E0E0"/>
<path d="M295.67 474.46L269.67 591.77H338.37L312.37 474.46C311.867 472.629 310.776 471.014 309.266 469.863C307.755 468.711 305.909 468.088 304.01 468.088C302.111 468.088 300.264 468.711 298.754 469.863C297.244 471.014 296.153 472.629 295.65 474.46H295.67Z" fill="#E0E0E0"/>
<path d="M317.69 497.75H290.52L283.96 527.48H324.25L317.69 497.75Z" fill="#F5F5F5"/>
<path d="M325.4 532.71H282.81L279.47 547.76H328.73L325.4 532.71Z" fill="#F5F5F5"/>
<path d="M125.4 597.14H139.33L180.36 367.76H166.41L125.4 597.14Z" fill="#E0E0E0"/>
<path d="M490.31 597.14H504.26L545.28 367.76H531.34L490.31 597.14Z" fill="#E0E0E0"/>
<path d="M586.31 378.93H125.4V462.3H586.31V378.93Z" fill="#EBEBEB"/>
<path d="M175.37 458.61H127.58L154.09 382.61H201.87L175.37 458.61Z" fill="#FAFAFA"/>
<path d="M270.93 458.61H223.15L249.66 382.61H297.42L270.93 458.61Z" fill="#FAFAFA"/>
<path d="M366.49 458.61H318.71L345.2 382.61H392.98L366.49 458.61Z" fill="#FAFAFA"/>
<path d="M462.04 458.61H414.26L440.76 382.61H488.55L462.04 458.61Z" fill="#FAFAFA"/>
<path d="M557.6 458.61H509.82L536.33 382.61H584.11L557.6 458.61Z" fill="#FAFAFA"/>
<path d="M221.38 597.14H207.43L166.41 367.76H180.36L221.38 597.14Z" fill="#E0E0E0"/>
<path d="M586.29 597.14H572.36L531.34 367.76H545.28L586.29 597.14Z" fill="#E0E0E0"/>
<path d="M774.18 590.09H651.17V597.14H774.18V590.09Z" fill="#E0E0E0"/>
<path d="M700.81 439.92L667.63 590.09H757.72L724.54 439.92C721.74 427.22 703.62 427.22 700.81 439.92Z" fill="#E0E0E0"/>
<path d="M730.49 466.81H694.87L686.26 505.79H739.1L730.49 466.81Z" fill="#F5F5F5"/>
<path d="M740.61 512.65H684.75L680.38 532.38H744.97L740.61 512.65Z" fill="#F5F5F5"/>
<path d="M801.9 353.73V404.49C801.887 405.812 801.356 407.076 800.421 408.011C799.486 408.946 798.222 409.477 796.9 409.49C796.391 409.488 795.886 409.411 795.4 409.26L62.5099 177.05C61.5007 176.723 60.6215 176.084 59.9995 175.225C59.3776 174.365 59.045 173.331 59.0499 172.27V121.49C59.0499 120.164 59.5766 118.892 60.5143 117.954C61.452 117.017 62.7238 116.49 64.0499 116.49C64.58 116.488 65.1068 116.573 65.6099 116.74L798.44 348.86C799.464 349.191 800.354 349.844 800.977 350.721C801.601 351.599 801.924 352.654 801.9 353.73V353.73Z" fill="#EBEBEB"/>
<path d="M744.23 389.21L784.58 401.99L762.19 341.34L721.86 328.55L744.23 389.21Z" fill="#FAFAFA"/>
<path d="M663.54 363.64L703.89 376.42L681.51 315.77L641.18 302.98L663.54 363.64Z" fill="#FAFAFA"/>
<path d="M582.86 338.08L623.21 350.85L600.83 290.2L560.48 277.41L582.86 338.08Z" fill="#FAFAFA"/>
<path d="M502.18 312.49L542.53 325.3L520.15 264.63L479.8 251.84L502.18 312.49Z" fill="#FAFAFA"/>
<path d="M421.5 286.94L461.83 299.73L439.46 239.05L399.12 226.27L421.5 286.94Z" fill="#FAFAFA"/>
<path d="M340.82 261.37L381.15 274.15L358.78 213.48L318.43 200.7L340.82 261.37Z" fill="#FAFAFA"/>
<path d="M260.12 235.8L300.47 248.58L278.08 187.91L237.75 175.13L260.12 235.8Z" fill="#FAFAFA"/>
<path d="M179.44 210.22L219.79 223.01L197.4 162.34L157.07 149.55L179.44 210.22Z" fill="#FAFAFA"/>
<path d="M98.7601 184.65L139.1 197.44L116.72 136.77L76.3901 123.98L98.7601 184.65Z" fill="#FAFAFA"/>
<path d="M218.03 604.61V621.18H130.61L130.63 604.61H218.03Z" fill="#2B032E"/>
<path d="M180 533.65H218V612.89H130.6C130.6 612.89 129.67 598.49 139.99 593.68C150.31 588.87 171.99 580.47 171.99 580.47L180 533.65Z" fill="#914296"/>
<path d="M254.16 604.61V621.18H341.58L341.56 604.61H254.16Z" fill="#2B032E"/>
<path d="M292.15 533.65H254.15V612.89H341.54C341.54 612.89 342.48 598.49 332.16 593.68C321.84 588.87 300.16 580.47 300.16 580.47L292.15 533.65Z" fill="#914296"/>
<path d="M404.91 581.74C401.15 581.74 396.66 580.74 391.36 577.85C369.07 565.85 353.24 530.41 344.3 472.4C340.247 445.109 337.949 417.586 337.42 390H347C347.531 417.118 349.803 444.173 353.8 471C362.15 525 376.7 559 395.9 569.35C404.84 574.15 408.6 571.45 409.83 570.57C414.65 567.11 422.41 554.44 420.26 508.45C419.325 490.738 417.466 473.088 414.69 455.57L424.16 453.97C427.004 471.868 428.903 489.903 429.85 508C431.69 547.12 426.97 570.17 415.43 578.45C412.362 580.637 408.677 581.789 404.91 581.74Z" fill="#2E3135"/>
<path d="M307.64 504.27C303.71 495.46 306.69 361.01 304.07 338.6C301.45 316.19 293.07 279.48 293.07 279.48L237.12 284L180.2 278.78C180.2 278.78 172.56 316.17 169.94 338.59C167.32 361.01 170.59 497.78 166.67 506.59C162.75 515.4 165.33 543.41 174.39 550.59C183.45 557.77 220.22 558.59 222.76 550.59C225.3 542.59 227.54 516.97 226.55 505.76C225.56 494.55 235.2 338.6 235.2 338.6H238.81C238.81 338.6 246 496.19 245 507.4C244 518.61 244.56 543.45 247.49 551.45C250.42 559.45 292.98 558.65 303.49 551.45C314 544.25 311.56 513.07 307.64 504.27Z" fill="#2B032E"/>
<path d="M326.2 411.64C319.41 411.64 313.25 407.21 308.86 399.16C304.97 392.03 302.86 382.66 302.86 372.77C302.86 362.88 305 353.5 308.86 346.38C313.25 338.32 319.41 333.89 326.2 333.89C332.99 333.89 339.2 338.32 343.55 346.38C347.44 353.5 349.55 362.88 349.55 372.77C349.55 382.66 347.42 392.03 343.55 399.16C339.16 407.21 333 411.64 326.2 411.64ZM326.2 343.5C323.13 343.5 319.88 346.22 317.29 350.97C314.21 356.63 312.44 364.57 312.44 372.77C312.44 380.97 314.21 388.9 317.29 394.56C319.88 399.31 323.13 402.04 326.2 402.04C329.27 402.04 332.53 399.31 335.12 394.56C338.2 388.9 340 381 340 372.77C340 364.54 338.23 356.63 335.15 350.97C332.53 346.22 329.28 343.5 326.2 343.5Z" fill="#2E3135"/>
<path d="M259.6 137.29L253.63 108.48H218.81L212.85 137.29L193.6 144.1L236.22 154.1L278.85 144.1L259.6 137.29Z" fill="#F9B499"/>
<path d="M217.47 113.81C219.302 117.136 221.998 119.904 225.274 121.823C228.55 123.742 232.284 124.739 236.08 124.71C249.41 124.71 256.17 113.81 256.17 113.81H217.47Z" fill="#F7A48B"/>
<path d="M165.19 142.32C165.19 142.32 132.56 166.87 110.24 202.66C90.3502 234.55 153.58 271.88 153.58 271.88L170.94 252.78L151.82 220.42L168.44 202.78C170.04 217.3 171.5 228.68 171.5 228.68C171.5 228.68 174.72 273.14 176.67 280.95C178.62 288.76 222.52 287.59 236.84 286.38L236.75 141.3L217.39 128.55C217.39 128.55 169.08 135.72 165.19 142.32Z" fill="#914296"/>
<path d="M349.6 236.35C344.53 194.48 309.85 142.35 309.85 142.35C305.96 135.75 256.45 128.58 256.45 128.58L237.29 141.25L236.75 141.33L237.29 286.41C254.43 286.94 295.58 287.31 297.53 279.51C299.48 271.71 301.26 249.45 301.26 249.45C301.26 249.45 302.43 240.04 303.94 226.79L312.17 246.72L318.64 309.02H346.69C346.69 309.02 354.71 278.53 349.6 236.35Z" fill="#914296"/>
<path d="M260 75.2601C259.874 69.1866 257.373 63.4043 253.033 59.1535C248.693 54.9027 242.86 52.522 236.785 52.522C230.71 52.522 224.877 54.9027 220.537 59.1535C216.197 63.4043 213.696 69.1866 213.57 75.2601C213.57 75.6801 213.57 76.1001 213.57 76.5101C213.73 82.3201 214.48 106.66 215.57 110.88C216.77 115.68 228.78 121.69 236.78 121.69C244.78 121.69 256.78 115.69 257.99 110.88C259.05 106.66 259.8 82.3201 259.99 76.5101C260 76.1001 260 75.6801 260 75.2601Z" fill="#F9B499"/>
<path d="M215.45 124.71L236.75 141.3L224.55 151.04L202.17 131.29L215.45 124.71Z" fill="#2B032E"/>
<path d="M236.75 141.3L257.07 123.14L269.58 130.68L249.29 151.04L236.75 141.3Z" fill="#2B032E"/>
<path d="M237.63 294.47H236.02V142.32L237.78 142.34L237.63 294.47Z" fill="#2B032E"/>
<path d="M264.05 180.34L263.46 207.15H290.98L288.67 178.94L264.05 180.34Z" fill="#2E3135"/>
<path d="M262.46 178.94H290.98L277.48 194.09L262.46 178.94Z" fill="#3F4347"/>
<path d="M186.84 180.34L186.25 207.15H213.77L211.46 178.94L186.84 180.34Z" fill="#2E3135"/>
<path d="M185.25 178.94H213.77L200.27 194.09L185.25 178.94Z" fill="#3F4347"/>
<path d="M215.18 85.29C215.18 85.29 214.68 71.38 217.35 67.29C217.35 67.29 222.69 59.71 236.56 59.71C250.43 59.71 257.07 67.29 257.07 67.29C257.07 67.29 259.43 83.79 258.43 86.82C258.43 86.82 259.35 81.82 262.49 79.19C262.49 79.19 263.04 60.11 253.43 54.11C243.82 48.11 216.32 51.11 213.61 59.18C210.9 67.25 210.39 81 210.39 81C210.39 81 215.32 82.68 215.18 85.29Z" fill="#2B032E"/>
<path d="M215.29 83.2698C215.29 83.2698 215.88 78.2098 209.88 79.1598C203.88 80.1098 202.82 93.2598 214.48 98.0798L215.29 83.2698Z" fill="#F9B499"/>
<path d="M257.08 83.2698C257.08 83.2698 256.49 78.2098 262.49 79.1598C268.49 80.1098 269.55 93.2598 257.89 98.0798L257.08 83.2698Z" fill="#F9B499"/>
<path d="M212.37 67.2601C212.37 67.2601 208.57 55.4101 209.28 49.6101C209.99 43.8101 234.28 38.0101 239.73 38.5201C245.18 39.0301 263.61 46.6501 264.44 50.8701C265.63 56.9301 262.2 67.2601 262.2 67.2601H212.37Z" fill="#914296"/>
<path d="M212.37 67.2598C212.37 67.2598 206.75 72.1798 207.14 74.5798C207.53 76.9798 262.53 74.5798 265.45 74.5798C268.37 74.5798 262.2 67.2598 262.2 67.2598H212.37Z" fill="#914296"/>
<g opacity="0.2">
<path d="M212.37 67.2598C212.37 67.2598 206.75 72.1798 207.14 74.5798C207.53 76.9798 262.53 74.5798 265.45 74.5798C268.37 74.5798 262.2 67.2598 262.2 67.2598H212.37Z" fill="black"/>
</g>
<path d="M169.39 254.43C169.39 254.43 183.2 249.71 186.39 249.43C189.58 249.15 195.99 252.23 197.33 252.9C198.67 253.57 203.86 255.16 203.73 255.96C203.6 256.76 199.86 258.23 192.26 256.77C192.26 256.77 200.93 261.17 202.4 262.23C203.87 263.29 201.73 265.17 197.73 264.64C194.896 264.218 192.089 263.637 189.32 262.9C189.32 262.9 199.4 268.1 201 268.64C202.6 269.18 202.53 271.87 193.73 270.37C191.174 269.79 188.675 268.987 186.26 267.97C186.26 267.97 191.86 273.04 193.99 274.24C196.12 275.44 191.86 276.64 189.32 276.11C186.78 275.58 177.32 271.31 176.12 270.51C174.92 269.71 166.85 274.91 163.21 272.64C160.984 271.182 159.312 269.021 158.46 266.5L169.39 254.43Z" fill="#F9B499"/>
<g opacity="0.4">
<path d="M202.65 162.3L209.44 163.47L204.38 168.15L205.37 174.96L199.36 171.59L193.18 174.64L194.52 167.88L189.72 162.95L196.56 162.14L199.77 156.05L202.65 162.3Z" fill="white"/>
<path d="M200.78 155.46C200.78 155.725 200.675 155.98 200.487 156.167C200.3 156.355 200.045 156.46 199.78 156.46C199.515 156.46 199.261 156.355 199.073 156.167C198.886 155.98 198.78 155.725 198.78 155.46C198.772 155.195 198.87 154.937 199.052 154.744C199.234 154.551 199.485 154.438 199.75 154.43C200.015 154.422 200.273 154.52 200.466 154.702C200.659 154.884 200.772 155.135 200.78 155.4V155.46Z" fill="white"/>
<path d="M210.44 163.44C210.44 163.638 210.381 163.831 210.271 163.996C210.162 164.16 210.005 164.288 209.823 164.364C209.64 164.44 209.439 164.459 209.245 164.421C209.051 164.382 208.873 164.287 208.733 164.147C208.593 164.007 208.498 163.829 208.459 163.635C208.421 163.441 208.44 163.24 208.516 163.057C208.592 162.875 208.72 162.718 208.884 162.608C209.049 162.499 209.242 162.44 209.44 162.44C209.705 162.44 209.96 162.545 210.147 162.733C210.335 162.92 210.44 163.175 210.44 163.44Z" fill="white"/>
<path d="M190.59 163.06C190.597 163.325 190.498 163.582 190.315 163.775C190.132 163.967 189.88 164.079 189.615 164.085C189.35 164.092 189.093 163.993 188.901 163.81C188.709 163.627 188.597 163.375 188.59 163.11C188.584 162.845 188.683 162.588 188.865 162.396C189.048 162.204 189.3 162.092 189.565 162.085C189.83 162.079 190.087 162.178 190.28 162.36C190.472 162.543 190.584 162.795 190.59 163.06V163.06Z" fill="white"/>
<path d="M206.42 174.93C206.42 175.195 206.315 175.45 206.127 175.637C205.94 175.825 205.685 175.93 205.42 175.93C205.155 175.938 204.897 175.84 204.704 175.658C204.511 175.476 204.398 175.225 204.39 174.96C204.382 174.695 204.48 174.437 204.662 174.244C204.844 174.051 205.095 173.938 205.36 173.93C205.496 173.922 205.633 173.942 205.761 173.988C205.89 174.035 206.007 174.107 206.106 174.201C206.206 174.295 206.285 174.408 206.339 174.533C206.393 174.658 206.42 174.793 206.42 174.93Z" fill="white"/>
<path d="M194.3 174.5C194.3 174.765 194.195 175.02 194.007 175.207C193.82 175.395 193.566 175.5 193.3 175.5C193.103 175.5 192.909 175.441 192.745 175.331C192.58 175.222 192.452 175.065 192.376 174.883C192.301 174.7 192.281 174.499 192.32 174.305C192.358 174.111 192.453 173.933 192.593 173.793C192.733 173.653 192.911 173.558 193.105 173.519C193.299 173.481 193.5 173.5 193.683 173.576C193.866 173.652 194.022 173.78 194.132 173.944C194.242 174.109 194.3 174.302 194.3 174.5Z" fill="white"/>
</g>
<path d="M174.32 249.42L152.08 273.88L141.45 265.52L165.46 240.71L174.32 249.42Z" fill="#2B032E"/>
<path d="M296.16 280.95H176.67V292.87H296.16V280.95Z" fill="#E1E1E2"/>
<path d="M272 271.88H287C288.947 271.88 290.814 272.653 292.19 274.03C293.567 275.406 294.34 277.273 294.34 279.22V310.47C294.34 313.303 293.215 316.019 291.212 318.022C289.209 320.025 286.493 321.15 283.66 321.15H275.3C272.468 321.15 269.751 320.025 267.748 318.022C265.745 316.019 264.62 313.303 264.62 310.47V279.22C264.62 278.253 264.811 277.295 265.183 276.402C265.554 275.509 266.098 274.698 266.784 274.016C267.47 273.334 268.284 272.794 269.179 272.427C270.074 272.061 271.033 271.875 272 271.88Z" fill="#2E3135"/>
<path d="M280.39 291.85L265.78 274.59L266.7 273.81L280.34 289.92L292.38 273.84L293.35 274.56L280.39 291.85Z" fill="#3F4347"/>
<path d="M244.36 279.04H231.69C228.559 279.04 226.02 281.579 226.02 284.71V289.15C226.02 292.281 228.559 294.82 231.69 294.82H244.36C247.491 294.82 250.03 292.281 250.03 289.15V284.71C250.03 281.579 247.491 279.04 244.36 279.04Z" fill="#9EA0A3"/>
<path d="M320.61 318.45C320.61 318.45 312.46 333.57 312 339.16C311.54 344.75 321.91 334.76 321.91 334.76C321.91 334.76 323.5 335.93 322.91 342.06C322.47 347.06 316.39 347.49 317.02 351.97C317.65 356.45 343.74 348.04 344.73 341.46C345.72 334.88 342.19 318.37 342.19 318.37L320.61 318.45Z" fill="#F9B499"/>
<path d="M349.3 319.96L316.25 320.47L315.08 307L349.6 307.54L349.3 319.96Z" fill="#2B032E"/>
<g opacity="0.4">
<path d="M232 47.2999C232 47.2999 230.84 49.4599 228.86 49.1499C228.86 49.1499 229.74 58.8499 236.24 58.9399V45.1699C235.789 45.8721 235.157 46.4403 234.411 46.815C233.665 47.1897 232.833 47.3572 232 47.2999V47.2999Z" fill="white"/>
<path d="M240.49 47.2999C239.657 47.3572 238.824 47.1897 238.079 46.815C237.333 46.4403 236.701 45.8721 236.25 45.1699V58.9399C242.75 58.8499 243.63 49.1499 243.63 49.1499C241.65 49.4599 240.49 47.2999 240.49 47.2999Z" fill="white"/>
</g>
<g opacity="0.2">
<path d="M151.744 267.23C153.065 266.562 153.594 264.949 152.926 263.629C152.258 262.308 150.645 261.779 149.325 262.447C148.004 263.115 147.475 264.727 148.143 266.048C148.811 267.369 150.423 267.898 151.744 267.23Z" fill="black"/>
</g>
<g opacity="0.2">
<path d="M322.902 314.47C323.159 313.012 322.185 311.623 320.727 311.366C319.269 311.11 317.88 312.083 317.623 313.541C317.367 314.999 318.34 316.389 319.798 316.645C321.256 316.902 322.646 315.928 322.902 314.47Z" fill="black"/>
</g>
<path d="M245.585 174.33C246.663 173.252 246.663 171.505 245.585 170.427C244.507 169.349 242.76 169.349 241.682 170.427C240.604 171.505 240.604 173.252 241.682 174.33C242.76 175.408 244.507 175.408 245.585 174.33Z" fill="#2B032E"/>
<path d="M246.314 194.045C246.664 192.561 245.744 191.075 244.26 190.726C242.776 190.377 241.29 191.297 240.941 192.781C240.592 194.264 241.512 195.75 242.996 196.099C244.48 196.449 245.965 195.529 246.314 194.045Z" fill="#2B032E"/>
<path d="M246.315 215.071C246.665 213.587 245.745 212.102 244.261 211.753C242.777 211.403 241.291 212.323 240.942 213.807C240.593 215.291 241.513 216.777 242.997 217.126C244.48 217.475 245.966 216.555 246.315 215.071Z" fill="#2B032E"/>
<path d="M245.586 237.422C246.664 236.344 246.664 234.596 245.586 233.519C244.508 232.441 242.761 232.441 241.683 233.519C240.605 234.596 240.605 236.344 241.683 237.422C242.761 238.5 244.508 238.5 245.586 237.422Z" fill="#2B032E"/>
<path d="M246.317 257.134C246.667 255.65 245.747 254.165 244.263 253.815C242.779 253.466 241.293 254.386 240.944 255.87C240.595 257.354 241.515 258.84 242.999 259.189C244.482 259.538 245.968 258.618 246.317 257.134Z" fill="#2B032E"/>
<g opacity="0.4">
<path d="M156.5 165.36C156.505 168.173 155.622 170.916 153.978 173.198C152.334 175.481 150.012 177.186 147.342 178.073C144.672 178.959 141.791 178.981 139.108 178.134C136.426 177.288 134.078 175.618 132.4 173.36C139.06 165.87 145.52 159.5 150.92 154.52C152.645 155.753 154.05 157.38 155.021 159.265C155.991 161.15 156.498 163.24 156.5 165.36V165.36Z" fill="white"/>
</g>
<g opacity="0.4">
<path d="M329.86 177.68C328.309 178.629 326.582 179.252 324.782 179.512C322.983 179.771 321.15 179.661 319.394 179.188C317.639 178.715 315.998 177.889 314.573 176.762C313.147 175.634 311.966 174.227 311.102 172.628C310.238 171.028 309.709 169.269 309.547 167.459C309.385 165.648 309.594 163.823 310.161 162.096C310.728 160.369 311.641 158.775 312.844 157.412C314.048 156.05 315.516 154.946 317.16 154.17C320.76 160.3 325.3 168.44 329.86 177.68Z" fill="white"/>
</g>
<path d="M214 92.6502H213.2C213.27 90.5902 213.01 84.9402 211.07 83.5302C210.817 83.3512 210.522 83.2406 210.213 83.209C209.905 83.1775 209.594 83.2261 209.31 83.3502L209.05 82.6002C209.455 82.4277 209.899 82.3629 210.337 82.4119C210.775 82.461 211.192 82.6222 211.55 82.8802C214.22 84.8102 214 92.3302 214 92.6502Z" fill="#F7A48B"/>
<path d="M211 93.3001C210.8 92.7101 209.1 87.4601 210.71 85.7601C211.007 85.4906 211.374 85.3115 211.769 85.2442C212.165 85.1769 212.571 85.224 212.94 85.3801L212.72 86.1501C211.72 85.8601 211.4 86.2101 211.29 86.3201C210.2 87.4601 211.29 91.5601 211.76 93.0501L211 93.3001Z" fill="#F7A48B"/>
<path d="M259.37 92.6501C259.37 92.3301 259.16 84.8101 261.82 82.8601C262.177 82.6022 262.595 82.4409 263.033 82.3919C263.471 82.3428 263.915 82.4077 264.32 82.5801L264.06 83.3301C263.776 83.2061 263.465 83.1575 263.156 83.189C262.848 83.2205 262.553 83.3312 262.3 83.5101C260.36 84.9201 260.1 90.5701 260.17 92.6301L259.37 92.6501Z" fill="#F7A48B"/>
<path d="M262.35 93.3002L261.6 93.0502C262.1 91.5602 263.16 87.4602 262.07 86.3202C261.96 86.2102 261.63 85.8602 260.64 86.1502L260.42 85.3802C260.787 85.2237 261.192 85.1763 261.586 85.2437C261.979 85.3111 262.345 85.4904 262.64 85.7602C264.26 87.4602 262.56 92.7102 262.35 93.3002Z" fill="#F7A48B"/>
<path d="M500.22 620.49C497.82 608.49 472.61 610.49 472.61 610.49C472.61 610.49 488.22 553.26 482.21 543.66C476.2 534.06 463 535.39 463 535.39C463 535.39 463.8 500.17 463 490.56C462.2 480.95 451.26 470.56 451.26 470.56L445.39 457C447.331 453.413 448.681 449.536 449.39 445.52C450.45 439.12 440.85 406.3 440.85 406.3C448.32 400.97 444.32 378.3 444.32 378.3C436.05 382.3 432.85 399.64 432.85 399.64H404.57C404.57 399.64 401.37 382.3 393.1 378.3C393.1 378.3 389.1 400.98 396.57 406.3C396.57 406.3 386.97 439.12 388.03 445.52C388.731 449.534 390.071 453.41 392 457L386.14 470.6C386.14 470.6 375.2 481.01 374.4 490.6C373.6 500.19 374.4 535.43 374.4 535.43C374.4 535.43 361.19 534.09 355.19 543.7C349.19 553.31 364.79 610.53 364.79 610.53C364.79 610.53 339.58 608.53 337.18 620.53C334.78 632.53 354.79 630.14 354.79 630.14H482.61C482.61 630.14 502.62 632.5 500.22 620.49Z" fill="#2B032E"/>
<path d="M386.17 470.55L419.85 490.71L451.26 470.55L448.23 463.53L420.42 480.84L389.19 463.53L386.17 470.55Z" fill="#914296"/>
<path d="M409.51 631.3H356.62V630.3C356.62 629.95 356.62 621.7 360.42 616.69C363.6 612.45 370.85 611.14 373.42 610.8V535.39H375.42V612.61L374.5 612.69C374.41 612.69 365.3 613.51 362.01 617.89C359.37 621.41 358.78 627.03 358.65 629.3H407.37L401.43 535.45L403.43 535.32L409.51 631.3Z" fill="#2B032E"/>
<path d="M480.68 631.3H427.79L433.86 535.3L435.86 535.43L429.92 629.28H478.64C478.51 627.01 477.92 621.39 475.28 617.87C471.99 613.49 462.88 612.68 462.79 612.67L461.87 612.59V535.39H463.87V610.8C466.45 611.14 473.69 612.45 476.87 616.69C480.63 621.69 480.67 629.95 480.67 630.3L480.68 631.3Z" fill="#2B032E"/>
<g opacity="0.2">
<path d="M409.51 631.3H356.62V630.3C356.62 629.95 356.62 621.7 360.42 616.69C363.6 612.45 370.85 611.14 373.42 610.8V535.39H375.42V612.61L374.5 612.69C374.41 612.69 365.3 613.51 362.01 617.89C359.37 621.41 358.78 627.03 358.65 629.3H407.37L401.43 535.45L403.43 535.32L409.51 631.3Z" fill="black"/>
<path d="M480.68 631.3H427.79L433.86 535.3L435.86 535.43L429.92 629.28H478.64C478.51 627.01 477.92 621.39 475.28 617.87C471.99 613.49 462.88 612.68 462.79 612.67L461.87 612.59V535.39H463.87V610.8C466.45 611.14 473.69 612.45 476.87 616.69C480.63 621.69 480.67 629.95 480.67 630.3L480.68 631.3Z" fill="black"/>
</g>
<g opacity="0.2">
<path d="M401.24 443.21C403.091 439.879 405.672 437.011 408.79 434.82C410.37 433.687 412.109 432.794 413.95 432.17C415.82 431.533 417.786 431.225 419.76 431.26C421.728 431.299 423.675 431.668 425.52 432.35C425.99 432.5 426.42 432.73 426.87 432.91L427.54 433.21L428.17 433.56L429.44 434.26L430.62 435.08C433.706 437.291 436.363 440.046 438.46 443.21C435.821 440.627 432.907 438.34 429.77 436.39L428.6 435.72L427.38 435.13L426.78 434.85L426.15 434.61C425.73 434.45 425.33 434.26 424.9 434.14L423.63 433.77C423.2 433.66 422.76 433.6 422.33 433.51C421.901 433.424 421.467 433.364 421.03 433.33C420.81 433.33 420.6 433.28 420.38 433.27H419.72C417.961 433.236 416.206 433.476 414.52 433.98C412.812 434.503 411.17 435.224 409.63 436.13C406.487 438.046 403.658 440.434 401.24 443.21V443.21Z" fill="black"/>
</g>
<g opacity="0.2">
<path d="M412.85 436.67H424.55C428.85 436.67 423.15 444.01 423.15 444.01C423.15 444.01 420.25 443.61 420.35 446.01C420.192 446.219 419.989 446.389 419.754 446.506C419.52 446.622 419.262 446.683 419 446.683C418.738 446.683 418.48 446.622 418.246 446.506C418.011 446.389 417.807 446.219 417.65 446.01C417.65 446.01 417.75 443.21 414.45 443.81C414.45 443.81 409.24 437.94 412.85 436.67Z" fill="black"/>
</g>
<g opacity="0.2">
<path d="M408.56 432.24C410.173 432.24 411.48 430.933 411.48 429.32C411.48 427.707 410.173 426.4 408.56 426.4C406.947 426.4 405.64 427.707 405.64 429.32C405.64 430.933 406.947 432.24 408.56 432.24Z" fill="black"/>
</g>
<g opacity="0.2">
<path d="M402.64 424.2C403.664 423.934 404.734 423.907 405.77 424.12C406.836 424.315 407.854 424.712 408.77 425.29C409.706 425.879 410.482 426.69 411.03 427.65C411.581 428.602 411.789 429.714 411.62 430.8C411.072 430.008 410.453 429.269 409.77 428.59C409.126 427.99 408.43 427.448 407.69 426.97C406.94 426.49 406.14 426.05 405.31 425.61C404.48 425.17 403.56 424.73 402.64 424.2Z" fill="black"/>
</g>
<g opacity="0.2">
<path d="M428.47 432.24C430.082 432.24 431.39 430.933 431.39 429.32C431.39 427.707 430.082 426.4 428.47 426.4C426.857 426.4 425.55 427.707 425.55 429.32C425.55 430.933 426.857 432.24 428.47 432.24Z" fill="black"/>
</g>
<g opacity="0.2">
<path d="M434.39 424.2C433.46 424.73 432.6 425.2 431.76 425.61C430.92 426.02 430.13 426.49 429.38 426.97C428.64 427.447 427.944 427.99 427.3 428.59C426.617 429.269 425.998 430.008 425.45 430.8C425.281 429.714 425.489 428.602 426.04 427.65C426.587 426.692 427.359 425.882 428.29 425.29C429.208 424.716 430.225 424.319 431.29 424.12C432.316 423.913 433.376 423.94 434.39 424.2V424.2Z" fill="black"/>
</g>
<g opacity="0.2">
<path d="M419.71 441.69H417.71V456.61H419.71V441.69Z" fill="black"/>
</g>
<g opacity="0.2">
<path d="M413.69 458.84C409.89 458.84 406.56 455.68 406.41 455.53L407.8 454.09L407.11 454.81L407.8 454.09C407.8 454.09 411.05 457.16 414.2 456.81C414.967 456.692 415.697 456.401 416.334 455.959C416.972 455.518 417.501 454.936 417.88 454.26L419.55 455.37C419.01 456.294 418.266 457.083 417.375 457.677C416.485 458.271 415.471 458.655 414.41 458.8C414.17 458.82 413.93 458.84 413.69 458.84Z" fill="black"/>
</g>
<g opacity="0.2">
<path d="M424.05 458.84C423.81 458.84 423.57 458.84 423.33 458.84C422.269 458.695 421.255 458.311 420.365 457.717C419.474 457.123 418.731 456.334 418.19 455.41L419.86 454.3C420.24 454.976 420.768 455.558 421.406 455.999C422.043 456.441 422.773 456.732 423.54 456.85C426.69 457.19 429.91 454.16 429.94 454.13L431.33 455.57C431.18 455.68 427.85 458.84 424.05 458.84Z" fill="black"/>
</g>
<path d="M424.2 491L433.02 492.52L426.45 498.6L427.73 507.46L419.92 503.08L411.89 507.04L413.63 498.26L407.39 491.84L416.28 490.79L420.45 482.87L424.2 491Z" fill="#914296"/>
<path d="M421.77 482.11C421.778 482.369 421.708 482.625 421.571 482.844C421.434 483.064 421.234 483.238 420.998 483.344C420.762 483.45 420.499 483.484 420.244 483.442C419.989 483.399 419.751 483.281 419.563 483.104C419.374 482.926 419.242 482.697 419.184 482.444C419.126 482.192 419.144 481.928 419.235 481.686C419.327 481.443 419.488 481.234 419.699 481.083C419.91 480.933 420.161 480.848 420.42 480.84C420.767 480.832 421.103 480.961 421.355 481.198C421.608 481.436 421.757 481.764 421.77 482.11V482.11Z" fill="#914296"/>
<path d="M434.33 492.48C434.338 492.739 434.268 492.994 434.131 493.214C433.994 493.434 433.794 493.608 433.558 493.714C433.322 493.82 433.06 493.854 432.804 493.811C432.549 493.769 432.312 493.651 432.123 493.474C431.934 493.296 431.802 493.067 431.744 492.814C431.686 492.562 431.704 492.298 431.795 492.056C431.887 491.813 432.049 491.604 432.259 491.453C432.47 491.303 432.721 491.218 432.98 491.21C433.152 491.205 433.323 491.233 433.484 491.294C433.645 491.355 433.793 491.447 433.918 491.565C434.043 491.683 434.144 491.825 434.215 491.982C434.286 492.139 434.325 492.308 434.33 492.48V492.48Z" fill="#914296"/>
<path d="M407.477 493.331C408.18 493.16 408.611 492.452 408.44 491.749C408.269 491.046 407.561 490.614 406.858 490.785C406.155 490.956 405.723 491.665 405.894 492.368C406.065 493.071 406.774 493.502 407.477 493.331Z" fill="#914296"/>
<path d="M428.068 508.762C428.771 508.592 429.203 507.883 429.032 507.18C428.861 506.477 428.153 506.046 427.45 506.217C426.747 506.387 426.315 507.096 426.486 507.799C426.657 508.502 427.365 508.933 428.068 508.762Z" fill="#914296"/>
<path d="M413.35 506.85C413.358 507.109 413.289 507.364 413.151 507.584C413.014 507.803 412.814 507.977 412.578 508.084C412.342 508.19 412.08 508.224 411.824 508.181C411.569 508.138 411.332 508.021 411.143 507.843C410.954 507.666 410.822 507.436 410.764 507.184C410.706 506.932 410.724 506.668 410.815 506.425C410.907 506.183 411.069 505.973 411.279 505.823C411.49 505.672 411.741 505.588 412 505.58C412.172 505.574 412.343 505.603 412.504 505.664C412.665 505.725 412.813 505.817 412.938 505.935C413.063 506.053 413.164 506.194 413.235 506.351C413.306 506.508 413.345 506.678 413.35 506.85V506.85Z" fill="#914296"/>
<g opacity="0.4">
<path d="M424.2 491L433.02 492.52L426.45 498.6L427.73 507.46L419.92 503.08L411.89 507.04L413.63 498.26L407.39 491.84L416.28 490.79L420.45 482.87L424.2 491Z" fill="white"/>
<path d="M421.77 482.11C421.778 482.369 421.708 482.625 421.571 482.844C421.434 483.064 421.234 483.238 420.998 483.344C420.762 483.45 420.499 483.484 420.244 483.442C419.989 483.399 419.751 483.281 419.563 483.104C419.374 482.926 419.242 482.697 419.184 482.444C419.126 482.192 419.144 481.928 419.235 481.686C419.327 481.443 419.488 481.234 419.699 481.083C419.91 480.933 420.161 480.848 420.42 480.84C420.767 480.832 421.103 480.961 421.355 481.198C421.608 481.436 421.757 481.764 421.77 482.11V482.11Z" fill="white"/>
<path d="M434.33 492.48C434.338 492.739 434.268 492.994 434.131 493.214C433.994 493.434 433.794 493.608 433.558 493.714C433.322 493.82 433.06 493.854 432.804 493.811C432.549 493.769 432.312 493.651 432.123 493.474C431.934 493.296 431.802 493.067 431.744 492.814C431.686 492.562 431.704 492.298 431.795 492.056C431.887 491.813 432.049 491.604 432.259 491.453C432.47 491.303 432.721 491.218 432.98 491.21C433.152 491.205 433.323 491.233 433.484 491.294C433.645 491.355 433.793 491.447 433.918 491.565C434.043 491.683 434.144 491.825 434.215 491.982C434.286 492.139 434.325 492.308 434.33 492.48V492.48Z" fill="white"/>
<path d="M407.477 493.332C408.18 493.161 408.611 492.452 408.44 491.749C408.269 491.046 407.561 490.615 406.858 490.786C406.155 490.957 405.723 491.665 405.894 492.368C406.065 493.071 406.774 493.503 407.477 493.332Z" fill="white"/>
<path d="M428.068 508.763C428.771 508.592 429.203 507.884 429.032 507.181C428.861 506.478 428.153 506.046 427.45 506.217C426.747 506.388 426.315 507.096 426.486 507.799C426.657 508.502 427.365 508.934 428.068 508.763Z" fill="white"/>
<path d="M413.35 506.85C413.358 507.109 413.289 507.365 413.151 507.584C413.014 507.804 412.814 507.978 412.578 508.084C412.342 508.19 412.08 508.224 411.824 508.182C411.569 508.139 411.332 508.021 411.143 507.844C410.954 507.666 410.822 507.437 410.764 507.184C410.706 506.932 410.724 506.668 410.815 506.426C410.907 506.183 411.069 505.974 411.279 505.823C411.49 505.673 411.741 505.588 412 505.58C412.172 505.575 412.343 505.604 412.504 505.664C412.665 505.725 412.813 505.817 412.938 505.935C413.063 506.053 413.164 506.195 413.235 506.352C413.306 506.509 413.345 506.678 413.35 506.85V506.85Z" fill="white"/>
</g>
<g opacity="0.2">
<path d="M400.71 402.19C400.71 402.19 399.87 392.56 393.89 385.77C393.89 385.77 392.16 402.31 398.23 406.25L400.71 402.19Z" fill="black"/>
</g>
<g opacity="0.2">
<path d="M437.18 402.19C437.18 402.19 438.01 392.56 444 385.77C444 385.77 445.73 402.31 439.65 406.25L437.18 402.19Z" fill="black"/>
</g>
<g opacity="0.2">
<path d="M392 457C396.19 460 400.3 463.17 404.55 466C405.09 466.33 405.62 466.68 406.17 467C406.44 467.16 406.71 467.32 406.98 467.45C407.235 467.596 407.499 467.726 407.77 467.84C408.914 468.25 410.102 468.525 411.31 468.66C413.823 468.996 416.355 469.166 418.89 469.17C421.427 469.221 423.965 469.121 426.49 468.87C427.703 468.781 428.903 468.563 430.07 468.22C430.194 468.181 430.315 468.131 430.43 468.07L430.6 467.99L430.8 467.87L431.62 467.38C432.16 467.06 432.71 466.72 433.25 466.38C435.41 465 437.54 463.58 439.62 462.08C440.673 461.333 441.693 460.553 442.68 459.74C443.17 459.33 443.68 458.92 444.11 458.46C444.587 458.032 445.007 457.544 445.36 457.01C444.767 458.173 443.99 459.234 443.06 460.15C442.16 461.09 441.2 461.97 440.24 462.84C438.24 464.55 436.24 466.16 434.12 467.68L432.52 468.8C432.25 468.99 431.97 469.16 431.69 469.34C431.376 469.548 431.041 469.722 430.69 469.86C429.393 470.302 428.052 470.604 426.69 470.76C424.085 471.063 421.463 471.196 418.84 471.16C416.214 471.141 413.594 470.927 411 470.52C409.646 470.32 408.32 469.961 407.05 469.45C405.855 468.828 404.718 468.102 403.65 467.28C401.54 465.73 399.57 464.05 397.65 462.35C395.73 460.65 393.84 458.8 392 457Z" fill="black"/>
</g>
<path d="M471.63 636.46H475.72L509 372.09H504.91L471.63 636.46Z" fill="#2E3135"/>
<path d="M506.55 477.68H502.46L491.55 391.03H495.64L506.55 477.68Z" fill="#2E3135"/>
<path d="M657.94 636.22H638.42V47.9198C638.42 44.7598 657.94 44.7598 657.94 47.9198V636.22Z" fill="#E1E1E2"/>
<path opacity="0.2" d="M657.94 268.85L638.42 272.78V245.77H657.94V268.85Z" fill="black"/>
<path d="M497.34 66.0631L485.908 219.899C485.077 231.091 493.475 240.837 504.666 241.669L778.611 262.027C789.803 262.858 799.549 254.46 800.381 243.268L811.813 89.4325C812.645 78.2409 804.246 68.4942 793.055 67.6625L519.11 47.3049C507.919 46.4732 498.172 54.8716 497.34 66.0631Z" fill="white"/>
<path d="M780.12 264.67H778.43L504.43 244.35C498.394 243.882 492.787 241.045 488.834 236.459C484.881 231.873 482.903 225.909 483.33 219.87L494.82 65.9998C495.291 59.9651 498.129 54.3613 502.714 50.4105C507.3 46.4596 513.262 44.4824 519.3 44.9098L793.3 65.2298C799.337 65.698 804.943 68.5345 808.896 73.1207C812.849 77.7069 814.828 83.6703 814.4 89.7098L802.91 243.55C802.473 249.295 799.886 254.665 795.666 258.589C791.446 262.512 785.902 264.701 780.14 264.72L780.12 264.67ZM517.58 49.8198C513.089 49.8333 508.769 51.5429 505.485 54.6062C502.201 57.6696 500.195 61.8606 499.87 66.3398L488.42 220.19C488.089 224.871 489.62 229.494 492.68 233.053C495.74 236.611 500.082 238.817 504.76 239.19L778.76 259.51C783.451 259.832 788.08 258.289 791.638 255.216C795.196 252.142 797.397 247.788 797.76 243.1L809.21 89.2398C809.544 84.5481 808.005 79.9153 804.932 76.3547C801.859 72.7941 797.5 70.5955 792.81 70.2398L518.81 49.9198C518.47 49.8298 518 49.8198 517.58 49.8198Z" fill="#914296"/>
<path d="M560.929 125.375L561.948 113.794L595.008 70.6051L604.992 71.4834L603.582 87.5124L597.673 86.9926L576.82 114.35L576.772 114.893L618.034 118.523L616.997 130.307L560.929 125.375ZM593.236 140.537L594.622 124.78L595.345 119.676L599.627 71.0114L613.414 72.2244L607.295 141.774L593.236 140.537ZM661.162 76.425L655.043 145.975L640.338 144.681L645.229 89.0888L644.822 89.053L628.016 97.6359L629.163 84.5954L647.34 75.209L661.162 76.425ZM702.939 79.1422C706.516 79.4569 709.905 80.3596 713.105 81.8503C716.327 83.343 719.125 85.517 721.497 88.3723C723.892 91.2296 725.657 94.8983 726.792 99.3786C727.951 103.838 728.265 109.216 727.734 115.512C727.214 121.421 726.082 126.637 724.338 131.161C722.618 135.664 720.382 139.426 717.63 142.446C714.877 145.466 711.683 147.672 708.047 149.063C704.413 150.432 700.445 150.927 696.144 150.549C691.503 150.14 687.484 148.886 684.086 146.784C680.691 144.66 678.044 141.952 676.143 138.659C674.267 135.346 673.274 131.722 673.164 127.788L687.665 129.064C688.008 131.649 689.023 133.724 690.711 135.287C692.4 136.827 694.581 137.715 697.252 137.95C701.78 138.348 705.395 136.681 708.096 132.949C710.799 129.194 712.465 123.876 713.093 116.996L712.617 116.954C711.397 118.9 709.839 120.531 707.943 121.847C706.05 123.141 703.925 124.083 701.569 124.675C699.235 125.268 696.789 125.452 694.231 125.227C690.133 124.866 686.561 123.582 683.516 121.375C680.47 119.168 678.167 116.296 676.608 112.759C675.048 109.223 674.458 105.292 674.839 100.968C675.227 96.3023 676.667 92.2425 679.161 88.7887C681.656 85.3349 684.94 82.7492 689.016 81.0315C693.116 79.2932 697.757 78.6635 702.939 79.1422ZM702.025 90.6975C699.739 90.4963 697.653 90.8604 695.769 91.7898C693.908 92.7211 692.376 94.0579 691.173 95.8001C689.993 97.5443 689.314 99.5494 689.138 101.815C688.937 104.102 689.253 106.206 690.088 108.128C690.948 110.028 692.201 111.599 693.849 112.839C695.521 114.058 697.489 114.768 699.753 114.967C701.451 115.116 703.053 114.938 704.557 114.431C706.062 113.925 707.395 113.164 708.557 112.148C709.743 111.112 710.707 109.884 711.448 108.467C712.188 107.049 712.631 105.514 712.777 103.861C712.947 101.663 712.604 99.602 711.746 97.6786C710.889 95.7551 709.615 94.16 707.924 92.8933C706.233 91.6266 704.267 90.8947 702.025 90.6975Z" fill="#904296"/>
<path d="M569.52 188.626L572.07 159.647L591.597 161.365L591.152 166.417L577.752 165.238L577.145 172.143L589.54 173.233L589.096 178.285L576.7 177.194L576.092 184.114L589.548 185.298L589.104 190.349L569.52 188.626ZM593.918 190.773L596.468 161.794L607.901 162.8C610.089 162.992 611.923 163.548 613.401 164.467C614.889 165.377 615.976 166.581 616.662 168.076C617.359 169.563 617.622 171.265 617.454 173.18C617.285 175.104 616.724 176.723 615.772 178.037C614.821 179.341 613.525 180.292 611.885 180.889C610.254 181.487 608.326 181.688 606.099 181.492L598.444 180.819L598.878 175.894L605.542 176.481C606.712 176.584 607.698 176.509 608.499 176.256C609.301 176.003 609.919 175.573 610.353 174.965C610.796 174.357 611.059 173.577 611.143 172.624C611.228 171.662 611.106 170.834 610.777 170.139C610.458 169.446 609.922 168.895 609.169 168.486C608.426 168.069 607.465 167.809 606.286 167.705L602.154 167.342L600.045 191.312L593.918 190.773ZM610.728 178.962L616.77 192.783L610.007 192.188L604.12 178.38L610.728 178.962ZM620.067 193.073L622.617 164.094L634.05 165.1C636.238 165.293 638.072 165.848 639.55 166.767C641.038 167.678 642.125 168.881 642.811 170.377C643.508 171.864 643.771 173.565 643.603 175.48C643.434 177.404 642.873 179.023 641.921 180.337C640.97 181.641 639.674 182.592 638.034 183.189C636.403 183.787 634.475 183.988 632.248 183.792L624.593 183.119L625.027 178.195L631.691 178.781C632.861 178.884 633.847 178.809 634.648 178.557C635.45 178.304 636.068 177.873 636.502 177.265C636.945 176.658 637.208 175.878 637.292 174.925C637.377 173.963 637.255 173.134 636.926 172.44C636.607 171.746 636.071 171.195 635.318 170.787C634.575 170.37 633.614 170.109 632.435 170.006L628.303 169.642L626.194 193.612L620.067 193.073ZM636.877 181.262L642.919 195.084L636.156 194.489L630.269 180.681L636.877 181.262ZM646.216 195.374L648.766 166.395L668.293 168.113L667.848 173.164L654.448 171.985L653.841 178.89L666.236 179.981L665.792 185.032L653.396 183.942L652.788 190.861L666.244 192.045L665.8 197.097L646.216 195.374ZM691.063 170.116L697.19 170.655L695.534 189.474C695.349 191.587 694.681 193.392 693.532 194.888C692.393 196.385 690.884 197.497 689.004 198.225C687.125 198.944 684.987 199.198 682.591 198.987C680.186 198.776 678.121 198.152 676.396 197.116C674.672 196.071 673.38 194.712 672.52 193.039C671.659 191.366 671.322 189.473 671.508 187.36L673.164 168.541L679.291 169.08L677.681 187.376C677.584 188.48 677.738 189.482 678.144 190.383C678.559 191.284 679.188 192.019 680.032 192.588C680.875 193.156 681.886 193.492 683.066 193.596C684.254 193.701 685.309 193.546 686.229 193.133C687.159 192.72 687.902 192.106 688.459 191.29C689.025 190.475 689.357 189.515 689.454 188.412L691.063 170.116ZM699.682 200.077L702.231 171.098L713.664 172.104C715.853 172.297 717.686 172.853 719.164 173.772C720.653 174.682 721.74 175.885 722.426 177.381C723.122 178.868 723.386 180.569 723.217 182.484C723.048 184.409 722.487 186.028 721.535 187.341C720.584 188.645 719.288 189.596 717.648 190.193C716.017 190.791 714.089 190.992 711.863 190.797L704.208 190.123L704.641 185.199L711.306 185.785C712.475 185.888 713.461 185.813 714.263 185.561C715.064 185.308 715.682 184.878 716.116 184.269C716.559 183.662 716.823 182.882 716.907 181.929C716.991 180.967 716.869 180.138 716.54 179.444C716.221 178.751 715.685 178.2 714.932 177.791C714.189 177.374 713.228 177.114 712.049 177.01L707.917 176.646L705.808 200.616L699.682 200.077ZM716.492 188.266L722.534 202.088L715.77 201.493L709.884 187.685L716.492 188.266Z" fill="#904296"/>
<path d="M514.72 652.97H470.39L502.61 396.99H546.95L514.72 652.97Z" fill="#914296"/>
<path opacity="0.4" d="M514.72 652.97H470.39L502.61 396.99H546.95L514.72 652.97Z" fill="black"/>
<path d="M680.06 652.97H635.73L667.95 396.99H712.29L680.06 652.97Z" fill="#914296"/>
<path opacity="0.4" d="M680.06 652.97H635.73L667.95 396.99H712.29L680.06 652.97Z" fill="black"/>
<path d="M631.75 652.97H635.73L667.95 396.99H663.99L631.75 652.97Z" fill="#2E3135"/>
<path d="M555.76 622.51H716.54L709.53 566.78H548.75L555.76 622.51Z" fill="#914296"/>
<path d="M555.76 622.51H553.13L546.11 566.78H548.75L555.76 622.51Z" fill="#263238"/>
<path d="M707.69 569.22L714.09 620.07H704.59L679.07 569.22H707.69Z" fill="white"/>
<path d="M662.87 569.22L688.39 620.07H653.51L627.99 569.22H662.87Z" fill="white"/>
<path d="M611.79 569.22L637.3 620.07H602.41L576.91 569.22H611.79Z" fill="white"/>
<path d="M560.72 569.22L586.22 620.07H557.6L551.2 569.22H560.72Z" fill="white"/>
<path d="M701.15 652.97H745.5L713.26 396.99H668.93L701.15 652.97Z" fill="#914296"/>
<path opacity="0.2" d="M683.29 511.03L729.94 529.36L716.54 423.06H672.2L683.29 511.03Z" fill="black"/>
<path d="M701.15 652.97H697.19L664.97 396.99H668.93L701.15 652.97Z" fill="#2E3135"/>
<path d="M535.81 652.97H580.16L547.94 396.99H503.59L535.81 652.97Z" fill="#914296"/>
<path opacity="0.2" d="M517.95 511.03L564.6 529.36L551.2 423.06H506.88L517.95 511.03Z" fill="black"/>
<path d="M535.81 652.97H531.85L499.63 396.99H503.59L535.81 652.97Z" fill="#2E3135"/>
<path d="M500.24 499.23H742.35L731.78 415.33H489.67L500.24 499.23Z" fill="#914296"/>
<path d="M729.01 418.98L738.66 495.55H724.35L685.93 418.98H729.01Z" fill="white"/>
<path d="M661.53 418.98L699.95 495.55H647.41L609.01 418.98H661.53Z" fill="white"/>
<path d="M584.61 418.98L623.03 495.55H570.49L532.07 418.98H584.61Z" fill="white"/>
<path d="M507.71 418.98L546.11 495.55H503.02L493.38 418.98H507.71Z" fill="white"/>
</g>
<defs>
<clipPath id="clip0_417_2">
<rect width="865.76" height="682.89" fill="white"/>
</clipPath>
</defs>
</svg>
