 <!DOCTYPE svg PUBLIC "-//W3C//DTD SVG 1.1//EN" "http://www.w3.org/Graphics/SVG/1.1/DTD/svg11.dtd">
<svg id="ed56977b-7661-4d33-a27e-741fce36bf38" data-name="Layer 1" xmlns="http://www.w3.org/2000/svg" width="865.76" height="682.89" viewBox="0 0 865.76 682.89">
<defs>
<style xmlns="http://www.w3.org/1999/xhtml">*, ::after, ::before { box-sizing: border-box; }
img, svg { vertical-align: middle; }
</style>
<style xmlns="http://www.w3.org/1999/xhtml">*, body, html { -webkit-font-smoothing: antialiased; }
img, svg { max-width: 100%; }
</style>
</defs>
<path d="M137.32,141.69H810.7a23,23,0,0,1,23,23V601.06a0,0,0,0,1,0,0H114.29a0,0,0,0,1,0,0V164.72A23,23,0,0,1,137.32,141.69Z" fill="#ccc"/>
<path d="M762.75,566.51H780s9.52,11.63,2.11,21.15c0,0-.35-3.88-3.87-4.94l-15.51.36Z" fill="#f9b499"/>
<rect x="253.61" y="302.21" width="130.8" height="39.66" opacity="0.2"/>
<rect x="253.61" y="345.14" width="130.8" height="39.66" opacity="0.2"/>
<rect x="253.61" y="388.07" width="130.8" height="39.66" opacity="0.2"/>
<rect x="253.61" y="431" width="130.8" height="39.66" opacity="0.2"/>
<rect x="253.61" y="473.93" width="130.8" height="39.66" opacity="0.2"/>
<rect x="386.52" y="302.21" width="130.8" height="39.66" opacity="0.2"/>
<rect x="386.52" y="345.14" width="130.8" height="39.66" opacity="0.2"/>
<rect x="386.52" y="388.07" width="130.8" height="39.66" opacity="0.2"/>
<rect x="386.52" y="431" width="130.8" height="39.66" opacity="0.2"/>
<rect x="386.52" y="473.93" width="130.8" height="39.66" opacity="0.2"/>
<rect x="519.21" y="302.21" width="130.8" height="39.66" opacity="0.2"/>
<rect x="519.21" y="345.14" width="130.8" height="39.66" opacity="0.2"/>
<rect x="519.21" y="388.07" width="130.8" height="39.66" opacity="0.2"/>
<rect x="519.21" y="431" width="130.8" height="39.66" opacity="0.2"/>
<rect x="519.21" y="473.93" width="130.8" height="39.66" opacity="0.2"/>
<rect x="651.77" y="302.21" width="126.95" height="39.66" opacity="0.2"/>
<rect x="651.77" y="345.14" width="126.95" height="39.66" opacity="0.2"/>
<rect x="651.77" y="431" width="126.95" height="39.66" opacity="0.2"/>
<rect x="651.77" y="473.93" width="126.95" height="39.66" opacity="0.2"/>
<rect x="651.77" y="388.07" width="126.95" height="39.66" fill="#d1d3d4"/>
<polygon points="46.09 568.27 46.09 582.37 60.89 582.37 59.48 568.62 46.09 568.27" fill="#f9b499"/>
<polygon points="90.5 568.98 90.5 579.38 105.31 580.08 105.31 567.04 90.5 568.98" fill="#f9b499"/>
<path d="M66.91,277.48a67.51,67.51,0,0,0,.88-15.25L63.4,245.76l16.59-8,12,7.42s2.47,13.16,0,22.58l-6.61,9.63.24,5.52a5,5,0,0,1-6.77,5C76,286.78,72.11,283.85,66.91,277.48Z" fill="#f9b499"/>
<path d="M67.79,262.23s-10.72-13.46-4-25.12A11.23,11.23,0,0,1,72,231.7l13.34-1.81s11.58-2,10.38,8.38c0,0,1.6,10.78-12,6,0,0-12-4.79-11.18,5.19,0,0,.26,15.18,6.12,14.38,0,0,14.25-4.33,14.64,0,0,0,5.6,14.75-8,13.55,0,0-12.78,1.6-14-15.18,0,0,.23-8.27-2.59-9.91C68.79,252.32,65.84,251,67.79,262.23Z" fill="#2b032e" data-secondary="true"/>
<path d="M32.45,322.66s4.46-38,11.48-40.2c0,0,23.3-13.09,53.93,0,0,0,21.38,9.89,19.47,46.91H111s-2.24,33.5,1,51.69c0,0-20.42,5.74-62.86-2.23,0,0,1.91-43.4,6.06-53.93Z" fill="#914296" data-primary="true"/>
<path d="M110.24,359.59l.71-30.22h5.29l2.29,2.54c6.7-9.52,25-25.2,25-25.2s2.44-13,16.22-12.32a1,1,0,0,1,.6,1.81,26,26,0,0,1-5.19,3.1s9,8.82-7.93,12.17c0,0-15.34,33.31-22.91,44.06C124.35,355.53,119.57,360.3,110.24,359.59Z" fill="#f9b499"/>
<path d="M90.86,361.88v2.82h70.68l13.58-33.58a.92.92,0,0,0-.85-1.27H123.64L110,362.12Z" fill="#2b032e" data-secondary="true"/>
<polygon points="126.28 329.85 123.64 329.85 109.99 362.12 90.86 361.88 90.86 364.7 111.3 364.7 126.28 329.85" opacity="0.2"/>
<circle cx="143.85" cy="348.3" r="4.47" opacity="0.2"/>
<path d="M43.62,572.5s13.75,3.88,19.74,0L80.87,425.15s4.7,51.12,4.35,79c0,0-1.41,69.45,7,68,0,0,6.69,2.08,15.86-.71,0,0,12.32-163.91,2.11-190,0,0-20.86,5.07-59.07-2.22,0,0-8.34,13.36-6.25,49.45.28,4.77.42,9.54.36,14.32Z" fill="#2b032e" data-secondary="true"/>
<path d="M41.41,597.23l3.8-17.15H60.89a129.12,129.12,0,0,1,1.89,15.51,5.33,5.33,0,0,1-5.45,5.47H44.49A3.15,3.15,0,0,1,41.41,597.23Z" fill="#914296" data-primary="true"/>
<path d="M88.74,577.26l16.57.71s10.4,15,26.09,22.2c0,0,1.93,1.94-2.3,2.12l-41.94-1.23S88.52,586.43,88.74,577.26Z" fill="#914296" data-primary="true"/>
<path d="M137.07,141.69H809.49a24.24,24.24,0,0,1,24.24,24.24v20.62a0,0,0,0,1,0,0H114.29a0,0,0,0,1,0,0V164.47A22.78,22.78,0,0,1,137.07,141.69Z" opacity="0.2"/>
<ellipse cx="665.15" cy="403.8" rx="11.23" ry="19" fill="#f9b499"/>
<path d="M638.56,497.47a14.84,14.84,0,0,0-13.67,15.77c1.63,22.21,26.57,60.21,26.57,60.21,4.12-11.75,11.14-21.63,18.79-30.82l-6.89-17.41,17.38,5.41c14-16.12,25.81-25,25.81-25C667.74,497.2,648.6,496.68,638.56,497.47Z" fill="#2b032e" data-secondary="true"/>
<path d="M638.62,497.27A14.84,14.84,0,0,0,624.94,513c1.64,22.22,26.58,60.22,26.58,60.22,4.12-11.75,11.13-21.63,18.78-30.82L663.42,525l17.38,5.41c14-16.12,25.81-25,25.81-25C667.79,497,648.66,496.48,638.62,497.27Z" opacity="0.2"/>
<path d="M657.7,595.06s-20.8.36,1.76-37.72c0,0,45.83-68.15,97.29-78.14,0,0,15.87,22.33-5.28,43.72s-49,38.65-49,38.65l61.69,1.06v25S697.88,599.29,657.7,595.06Z" fill="#2b032e" data-secondary="true"/>
<path d="M603.38,504.08s-15.06-.54-26,5.75c0,0-1.5-5-11.4-3a1.47,1.47,0,0,0-1.23,1.32c0,.93.85,2,5.63,1.71,0,0-13.82,3.24-12.26,8.1a2.69,2.69,0,0,0,1.21,1.43c2.3,1.38,10.18,5.14,19.06-1.48,0,0,24,.57,26.32-2.49Z" fill="#f9b499"/>
<rect x="166.54" y="219.99" width="74.49" height="66.27" fill="#2b032e" data-secondary="true"/>
<rect x="253.61" y="219.99" width="345.14" height="26.79" opacity="0.2"/>
<rect x="253.61" y="259.47" width="72.17" height="26.79" opacity="0.2"/>
<rect x="344.6" y="259.47" width="72.17" height="26.79" opacity="0.2"/>
<rect x="435.59" y="259.47" width="72.17" height="26.79" opacity="0.2"/>
<rect x="526.58" y="259.47" width="72.17" height="26.79" opacity="0.2"/>
<rect x="706.55" y="219.99" width="72.17" height="26.79" opacity="0.2"/>
<rect x="706.55" y="259.47" width="72.17" height="26.79" opacity="0.2"/>
<rect x="615.04" y="219.99" width="74.97" height="66.27" opacity="0.2"/>
<path d="M606.83,268.41H479.29A12.33,12.33,0,0,1,467,256.07V92.87a13.71,13.71,0,0,1,13.71-13.72h85.5l53,52.24V256.07A12.34,12.34,0,0,1,606.83,268.41Z" fill="#2b032e" data-secondary="true"/>
<polygon points="565.34 131.16 566.16 79.15 619.18 131.39 565.34 131.16" fill="#2b032e" data-secondary="true"/>
<polygon points="565.34 131.16 566.16 79.15 619.18 131.39 565.34 131.16" opacity="0.2"/>
<rect x="504.35" y="156.3" width="77.08" height="77.08" rx="1.39" fill="#fff"/>
<rect x="508.94" y="160.24" width="31.64" height="31.64" fill="#2b032e" data-secondary="true"/>
<rect x="545.77" y="160.24" width="31.64" height="31.64" fill="#2b032e" data-secondary="true"/>
<rect x="508.82" y="196.9" width="31.64" height="31.64" fill="#2b032e" data-secondary="true"/>
<rect x="545.66" y="196.9" width="31.64" height="31.64" fill="#2b032e" data-secondary="true"/>
<path d="M34.28,322.84c-2.24,7-1.83,24.71-1.83,24.71-.32,18.19,4.46,19.79,4.46,19.79s15.64,8,76,3.83c0,0,4.15,2.39,14,1.19,0,0,14-6.3-6.06-7.89,0,0,.45-2.54,4-2.3,0,0-2.86-4.39-12,2.58,0,0-32.26-9.44-62.07-11.77,0,0,1.61-20.7,4.34-28.08Z" fill="#f9b499"/>
<circle cx="693.43" cy="165.67" r="6.26" fill="#fafafa"/>
<circle cx="736.38" cy="165.67" r="6.26" fill="#fafafa"/>
<circle cx="778.72" cy="166.67" r="6.26" fill="#fafafa"/>
<path d="M667.49,431s-27.77,46.72-28.71,64.65c0,0-26.32,2.82-36.66,6.58v15.52s41.11,1.88,51.81-8.47l27.15-46.06s0,21.15,12.69,28.2l10.81,15.51s32-25.85,52.17-27.73c0,0-28.29-43.16-39.29-60.58Z" fill="#914296" data-primary="true"/>
<path d="M668,434.51c2.63,12.8,9.58,14.16,13.53,13.82,2.93-.26,5.86-.48,8.8-.52,14.41-.21,22.53-3.74,26.92-6.89a11.68,11.68,0,0,0,4.44-12.4c-1.53-5.93-5.56-12.6-9.32-17.93a101.46,101.46,0,0,1-10.47-18.74c-.42-1-.87-2-1.31-2.9a28.13,28.13,0,0,0-18.47-15.34c-9.17-2.23-17.32.68-21.37,2.61a12.37,12.37,0,0,0-5.33,4.69c-4.12,6.84,1.21,12.94,5.69,16.51a21.11,21.11,0,0,0,7.32,3.63c2.77.79,6.47,3.47,2.3,12.44A33.76,33.76,0,0,0,668,434.51Z" fill="#2b032e" data-secondary="true"/>
<path d="M791,596.55l1.21-27a3.92,3.92,0,0,0-3.66-4.11,53.35,53.35,0,0,0-11.71,1.06l5.28,21.15s3.22,16.08,7.52,12A4.59,4.59,0,0,0,791,596.55Z" fill="#914296" data-primary="true"/>
<path d="M657.7,595.06s-7.41,6,0,6c0,0,9.51.66,16.12-5.1Z" fill="#914296" data-primary="true"/>
</svg>