 <!DOCTYPE svg PUBLIC "-//W3C//DTD SVG 1.1//EN" "http://www.w3.org/Graphics/SVG/1.1/DTD/svg11.dtd">
<svg id="f72d3d90-1e70-418b-8456-8a6aa3fe362f" data-name="Layer 1" xmlns="http://www.w3.org/2000/svg" xmlns:xlink="http://www.w3.org/1999/xlink" width="865.76" height="682.89" viewBox="0 0 865.76 682.89">
<defs>
<clipPath id="bfc4c0f4-289f-4abd-ab7a-38bd23c1987a">
<path id="ab626f35-bc77-4266-b228-7b2a8bfca7d7" data-name="SVGID" d="M120.62,458.47A52.76,52.76,0,0,1,109.69,482c-9.28,11.48-21.84,33.87-22.43,55.16s-25.15,80.21-22.44,84.58,26.76,10.38,36,10.38c4.87,0,13,1.87,16.17-2.88C117.21,628.92,98,619,96.64,618s-12.06-8.5-11.71-9.46c0,0,25.17-68.19,37.73-85.65s21.84-30.59,25.65-41.5,7.24-21.25,7.24-21.25Z" fill="none"/>
</clipPath>
<clipPath id="aa5339d0-4572-43c5-84bc-f39a65cef007">
<path id="b1d95eef-aab5-480a-acf8-5d95262e9930" data-name="SVGID" d="M121.35,349.49,102.41,454.05a144,144,0,0,0,27.14,13.58c14.93,5.43,40.79,4.08,40.79,4.08l10.2-50.88,4.08,47.5s19.68,2,33.93-.68S255.87,450,255.87,450L211,366.54l-10.19-19.68-79.39-2Z" fill="none"/>
</clipPath>
<style xmlns="http://www.w3.org/1999/xhtml">*, ::after, ::before { box-sizing: border-box; }
img, svg { vertical-align: middle; }
</style>
<style xmlns="http://www.w3.org/1999/xhtml">*, body, html { -webkit-font-smoothing: antialiased; }
img, svg { max-width: 100%; }
</style>
</defs>
<rect x="543.65" y="470.92" width="260" height="153.39" fill="#ccc"/>
<rect x="650.9" y="444.96" width="15.52" height="4.64" fill="none" stroke="#ed1c24" stroke-miterlimit="10"/>
<rect x="650.9" y="451.46" width="15.52" height="4.64" fill="none" stroke="#ed1c24" stroke-miterlimit="10"/>
<rect x="650.9" y="457.83" width="15.52" height="4.64" fill="none" stroke="#ed1c24" stroke-miterlimit="10"/>
<rect x="565.41" y="372.75" width="173.33" height="98.17" fill="#ccc"/>
<rect x="674.85" y="372.75" width="63.88" height="98.17" opacity="0.2"/>
<rect x="691.12" y="372.75" width="31.04" height="23.03" fill="#ccc"/>
<rect x="686.09" y="443.54" width="40.66" height="5.9" fill="#ccc"/>
<rect x="686.09" y="451.13" width="40.66" height="5.9" fill="#ccc"/>
<rect x="686.09" y="458.73" width="40.66" height="5.9" fill="#ccc"/>
<g opacity="0.2">
<path d="M670.67,466.69H568.84V375.36H670.67Zm-100.33-1.5h98.83V376.86H570.34Z"/>
</g>
<rect x="700.89" y="470.92" width="102.76" height="153.39" opacity="0.2"/>
<rect x="726.58" y="470.92" width="49.45" height="36.98" opacity="0.2"/>
<g opacity="0.2">
<path d="M694.57,619H549.18V476.22H694.57Zm-143.89-1.5H693.07V477.71H550.68Z"/>
</g>
<rect x="311.19" y="434.16" width="339.54" height="190.14" fill="#ccc"/>
<rect x="525.58" y="434.16" width="125.14" height="190.14" opacity="0.2"/>
<rect x="557.45" y="434.16" width="60.8" height="45.12" opacity="0.2"/>
<rect x="547.6" y="572.84" width="79.64" height="11.56" opacity="0.2"/>
<rect x="547.6" y="587.72" width="79.64" height="11.56" opacity="0.2"/>
<rect x="547.6" y="602.6" width="79.64" height="11.56" opacity="0.2"/>
<g opacity="0.2">
<path d="M516.66,617.47h-198V440h198ZM320.13,616h195V441.49h-195Z"/>
</g>
<rect x="478.66" y="575.62" width="30.4" height="9.1" opacity="0.2"/>
<rect x="478.66" y="588.36" width="30.4" height="9.1" opacity="0.2"/>
<rect x="478.66" y="600.83" width="30.4" height="9.1" opacity="0.2"/>
<path d="M434.54,185.84a79.7,79.7,0,0,0-79.71,79.71h0c0,39.76,73.53,133.47,73.53,133.47h6.18s79.71-89.45,79.71-133.47a79.71,79.71,0,0,0-79.71-79.71Zm0,118.64a38.93,38.93,0,1,1,38.93-38.93A38.93,38.93,0,0,1,434.54,304.48Z" fill="#2b032e" data-secondary="true"/>
<path d="M434.54,185.84a79.7,79.7,0,0,0-79.71,79.71h0c0,39.76,73.53,133.47,73.53,133.47h6.18s79.71-89.45,79.71-133.47a79.71,79.71,0,0,0-79.71-79.71Zm0,118.64a38.93,38.93,0,1,1,38.93-38.93A38.93,38.93,0,0,1,434.54,304.48Z" opacity="0.2"/>
<path d="M428.36,185.84a79.7,79.7,0,0,0-79.71,79.71h0c0,44,79.71,133.47,79.71,133.47s79.71-89.45,79.71-133.47a79.71,79.71,0,0,0-79.71-79.71Zm0,118.64a38.93,38.93,0,1,1,38.93-38.93A38.93,38.93,0,0,1,428.36,304.48Z" fill="#2b032e" data-secondary="true"/>
<polygon points="91.05 291.41 120.11 241.96 120.62 259.8 103.29 294.47 91.05 291.41" fill="#2b032e" data-secondary="true"/>
<path d="M120.62,458.47A52.76,52.76,0,0,1,109.69,482c-9.28,11.48-21.84,33.87-22.43,55.16s-25.15,80.21-22.44,84.58,26.76,10.38,36,10.38c4.87,0,13,1.87,16.17-2.88C117.21,628.92,98,619,96.64,618s-12.06-8.5-11.71-9.46c0,0,25.17-68.19,37.73-85.65s21.84-30.59,25.65-41.5,7.24-21.25,7.24-21.25Z" fill="#fff"/>
<g clip-path="url(#bfc4c0f4-289f-4abd-ab7a-38bd23c1987a)">
<path d="M113.79,476.12a135.62,135.62,0,0,0,33,9.4c.61-1.41,1.16-2.78,1.63-4.08,3.83-10.93,7.09-21.31,7.09-21.31l-34.93-1.63A51.39,51.39,0,0,1,113.79,476.12Z" fill="#92e3a9"/>
</g>
<path d="M120.62,458.47A52.76,52.76,0,0,1,109.69,482c-9.28,11.48-21.84,33.87-22.43,55.16s-25.15,80.21-22.44,84.58,26.76,10.38,36,10.38c4.87,0,13,1.87,16.17-2.88C117.21,628.92,98,619,96.64,618s-12.06-8.5-11.71-9.46c0,0,25.17-68.19,37.73-85.65s21.84-30.59,25.65-41.5,7.24-21.25,7.24-21.25Z" fill="#f9b499"/>
<path d="M199.65,462.94a52.77,52.77,0,0,1,10.19,23.82c2.31,14.58,10.55,38.89,26,53.55s42.83,76.34,47.89,77.21c5.93,1.07,15-6.52,19.39-9.6,5.61-3.92,18.48-11.91,20.4-18.82,2.3-8-5.88-4-9.32-1.39-4.47,3.32-26.76,6.12-26.76,6.12s-33.87-68.4-38.44-89.41-8.16-36.71-13.69-46.9S224.26,438,224.26,438Z" fill="#f9b499"/>
<path d="M121.35,349.49,102.41,454.05a144,144,0,0,0,27.14,13.58c14.93,5.43,40.79,4.08,40.79,4.08l10.2-50.88,4.08,47.5s19.68,2,33.93-.68S255.87,450,255.87,450L211,366.54l-10.19-19.68-79.39-2Z" fill="#2b032e" data-secondary="true"/>
<g clip-path="url(#aa5339d0-4572-43c5-84bc-f39a65cef007)">
<g opacity="0.2">
<path d="M181.19,409.51c6.89-8.63,9.38-59.35,9.38-59.35l-69.22-5.24v4.57L112.71,397C132.08,403.19,175.83,416.2,181.19,409.51Z"/>
</g>
</g>
<polygon points="238.39 266.94 277.14 277.13 292.95 230.23 233.81 219.01 220.55 262.35 238.39 266.94" fill="#2b032e" data-secondary="true"/>
<line x1="245.96" y1="245.24" x2="270.59" y2="251.26" fill="none" stroke="#fff" stroke-linecap="round" stroke-linejoin="round"/>
<line x1="243.57" y1="251.26" x2="268.21" y2="257.27" fill="none" stroke="#fff" stroke-linecap="round" stroke-linejoin="round"/>
<path d="M198.12,269.49s12.23-6.63,16.31-12.24,8.67-15.29,10.71-16.82,12.23-6.63,14.27-8.16,5.1,1.53,1.53,4.59-11.21,9.68-11.21,9.68,2,9.18-.51,12.24a31.12,31.12,0,0,1-4.59,4.59l13.76,3.57s-9.17,6.63-13.25,7.65a96.77,96.77,0,0,1-12.24,1.53l-16.82,13.25Z" fill="#f9b499"/>
<path d="M143.05,158.12s-16.31,23.76-20.39,51.57-1.35,139.8-1.35,139.8,21.7,8.81,38.75,8.81,42.07,1.37,42.83-8.16-4.75-118.75-12.24-145.22A195.26,195.26,0,0,0,168.22,156S151.21,144.54,143.05,158.12Z" fill="#914296" data-primary="true"/>
<polygon points="180.27 178.74 158.35 318.43 177.72 325.57 186.39 191.48 180.27 178.74" fill="#914296" data-primary="true"/>
<path d="M131.73,104s2.72,12.89,8.16,19.68,15.6,10.2,15.6,10.2l-2.91,15.44,19,11.54,7-33.1,2-39.36S133,96.53,131.73,104Z" fill="#f9b499"/>
<path d="M200.28,100.57a37,37,0,0,0-.68-6.12V89l-31.2,6.8s-4.1,15.64-8.89,11.56c0,0-6.79-8.16-10.85-4.75s-2.73,12.91,2,17.66,10.87.67,10.87.67,2.71,8.81,7.46,12.89,21,6.79,26.52,2.71,3.38-19,3.38-19l1.33-16.92" fill="none"/>
<polygon points="145.79 143.86 139.67 157.44 170.22 176.43 176.31 157.44 145.79 143.86" fill="#914296" data-primary="true"/>
<polygon points="145.79 143.86 139.67 157.44 170.22 176.43 176.31 157.44 145.79 143.86" opacity="0.2"/>
<path d="M191.49,313.85l-.24,1.66-11,77.75a9.31,9.31,0,0,1-10.52,7.9,9.12,9.12,0,0,1-1-.21L69.92,375.29a7.36,7.36,0,0,1-5.34-8.75l18-79.14.36-1.59,1.16.3,106.44,27.48Z" fill="#2b032e" data-secondary="true"/>
<path d="M192.2,314.59l-.95.92c-6.73,6.47-45,42.47-63,42.47a9.49,9.49,0,0,1-4.42-1C109,349.33,86.32,296.45,82.53,287.4l.36-1.59,1.16.3c2.82,6.71,26.26,61.75,40.62,69.21s61.16-37.24,65.82-41.73l.37-.36a1,1,0,0,1,1.34,1.36Z" opacity="0.2"/>
<path d="M198.79,337.36c0,3.39-6.12,14.93-8.16,12.89s2-11.54,2-11.54a41.66,41.66,0,0,0-4.08-9.51c-2-2.75-2.71-14.27-2.71-14.27s-84.15-30.51-86.19-36,4.76-20.39,4.76-20.39l32.28,11.9,1,.36.72.44c6.62,4.06,57.12,35.11,59,39.59C199.46,315.64,198.79,334,198.79,337.36Z" fill="#f9b499"/>
<polyline points="141.71 177.13 102.35 260.57 137.63 270.77 166.14 204.27" fill="#914296" data-primary="true"/>
<path d="M168.44,221.51l-13.07,13.07a.92.92,0,0,1-.67.28h0l-16.19,36.3a.3.3,0,0,1-.07.1l-.72-.44-1-.36,0-.08,26-58.26a1,1,0,0,1,1.74.78l-7.94,17.81,10.55-10.55a1,1,0,0,1,1.35,1.35Z" opacity="0.2"/>
<path d="M107.1,446.52s1.57,1.19,4.49,2.94" fill="none" stroke="#2e353a" stroke-linecap="round" stroke-linejoin="round"/>
<path d="M323.56,589.1c2.3-8-5.88-4-9.32-1.39-4.47,3.32-26.76,6.12-26.76,6.12l-2.71-6.12a47.12,47.12,0,0,1-13.83,8.44c5.94,11.79,10.69,21.05,12.77,21.4,5.93,1.06,15-6.53,19.39-9.61C308.71,604,321.58,596,323.56,589.1Z" fill="#914296" data-primary="true"/>
<path d="M306.61,600.23c-9.18,4.77-19.88,10.56-26.06,13.81,1.34,2,2.42,3.36,3.16,3.48,5.93,1.07,15-6.52,19.39-9.6,5.61-3.92,18.48-11.91,20.4-18.82,1-3.35,0-4.57-1.53-4.67C318.58,590.1,313.32,596.8,306.61,600.23Z" opacity="0.2"/>
<path d="M117.09,629.19C117.28,628.92,98,619,96.7,618s-12-8.5-11.71-9.46l2.16-5.77a86.82,86.82,0,0,1-16.43-4.69c-4.08,12.36-7,21.9-5.92,23.58,2.72,4.36,26.76,10.38,36,10.38C105.79,632.07,113.87,633.94,117.09,629.19Z" fill="#914296" data-primary="true"/>
<path d="M98,627.56c-12.5-.76-26.39-5.9-33.18-8.71a5.08,5.08,0,0,0,0,2.84c2.72,4.36,26.76,10.38,36,10.38,4.87,0,13,1.87,16.17-2.88a20.18,20.18,0,0,0-2.87-1.69A117.77,117.77,0,0,1,98,627.56Z" opacity="0.2"/>
<polygon points="175.31 143.14 176.98 135.25 165.3 129.19 175.31 143.14" fill="#f4a48e"/>
<path d="M131.73,104s2.72,12.89,8.16,19.68,15.6,10.2,15.6,10.2,16.32-4.75,17.64-15.6c1-7.83-.49-21.27-1.4-28.19C157.88,92.82,132.71,98.59,131.73,104Z" fill="#3f3d56"/>
<path d="M200.28,100.57a37,37,0,0,0-.68-6.12V89l-31.2,6.8s-4.1,15.64-8.89,11.56c0,0-6.79-8.16-10.85-4.75s-2.73,12.91,2,17.66,10.87.67,10.87.67,2.71,8.81,7.46,12.89,21,6.79,26.52,2.71,3.38-19,3.38-19" fill="#f9b499"/>
<path d="M131.73,104l67.85-15s-9.5-33.26-21-36S144.62,49,132.41,61.19,131.73,104,131.73,104Z" fill="#914296" data-primary="true"/>
<path d="M177,94a202.85,202.85,0,0,0,27.36,4.57c12.23.67,40-10.2,33.26-10.87s-38,1.37-38,1.37Z" fill="#3f3d56"/>
</svg>