 <!DOCTYPE svg PUBLIC "-//W3C//DTD SVG 1.1//EN" "http://www.w3.org/Graphics/SVG/1.1/DTD/svg11.dtd">
<svg id="fc622691-09fc-4f7e-abe2-a19a5ccd1df2" data-name="Layer 1" xmlns="http://www.w3.org/2000/svg" xmlns:xlink="http://www.w3.org/1999/xlink" width="865.76" height="682.89" viewBox="0 0 865.76 682.89">
<defs>
<clipPath id="ae79a4e4-ef12-429e-8bc2-a7c53dcd0d46">
<path id="ecf029f0-0c53-4bd2-843b-9735729199e1" data-name="SVGID" d="M484.35,287.92a87.17,87.17,0,1,1,125,1.89l43.87,42.83a147.35,147.35,0,1,0-209-1.36Z" fill="none"/>
</clipPath>
<style xmlns="http://www.w3.org/1999/xhtml">*, ::after, ::before { box-sizing: border-box; }
img, svg { vertical-align: middle; }
</style>
<style xmlns="http://www.w3.org/1999/xhtml">*, body, html { -webkit-font-smoothing: antialiased; }
img, svg { max-width: 100%; }
</style>
</defs>
<path d="M809,591.65c0,.18-174.18.33-389,.33s-389-.15-389-.33,174.14-.32,389-.32S809,591.48,809,591.65Z" fill="#1a2e35"/>
<polygon points="754 567.75 738.63 579.26 720.36 561.74 735.73 550.24 754 567.75" fill="#f9b499"/>
<path d="M732.16,573.72l16.06-13.46a1.46,1.46,0,0,1,2,0l12.4,11.24a3,3,0,0,1,.07,4.24,2.39,2.39,0,0,1-.23.22c-5.69,4.61-8.66,6.56-15.74,12.46-4.34,3.66-13.43,12.28-19.45,17.41s-11.3-.66-9.24-3.27c9.17-11.81,11.26-19.56,12.35-26A4.94,4.94,0,0,1,732.16,573.72Z" fill="#914296" data-primary="true"/>
<polygon points="643.12 601.46 623.92 600.93 620.5 575.85 639.69 576.39 643.12 601.46" fill="#f9b499"/>
<path d="M622.29,592.57l21-.57a1.47,1.47,0,0,1,1.53,1.23l2.73,16.51a3,3,0,0,1-2.58,3.37l-.31,0c-7.32.08-10.87-.23-20.08,0-5.67.17-18.15,1.27-26,1.55s-8.45-7.53-5.21-8.31c14.52-3.54,21-8.32,25.84-12.7A4.91,4.91,0,0,1,622.29,592.57Z" fill="#914296" data-primary="true"/>
<path d="M823.22,421.82s-8.06-3.49-13.78,15.33-7.27,29.35-7.27,29.35-1.68,4-4.59,2.1-7.49-8-11.5-6.05-4.72,7.17-2.61,14.19,6.18,22.6,6.54,24-.08,3.59-2.27,2.6-15.62-11.48-20.21-4.81,4.5,25.28,5.46,27.34.7,3-.23,3.76-5.11-3.23-9.06-6.06-9-5.41-11.34-1.34-.65,19,17.61,40.36l9.11,9.36,12.77-3c26.94-8.12,36.4-19.72,36.64-24.41s-5.41-5.25-10.26-5-10.5,1.3-10.89.2-.07-2.08,1.84-3.29,19.65-11.93,19.39-20-17.22-6.55-19.6-6.9-1.54-2.45-.49-3.42,12.91-11.87,18.49-16.64,7.88-9.39,5.48-13.35S823,474.92,819.51,475s-2.72-4.25-2.72-4.25,4.4-9.71,9.77-28.62-3.51-20.34-3.51-20.34" fill="#ececec"/>
<path d="M818.07,438.66s0,.13-.09.4-.18.67-.31,1.17c-.29,1-.7,2.55-1.23,4.48-1.08,3.89-2.68,9.51-4.68,16.45-4,13.87-9.68,33-16,54.09s-12.09,40.21-16.16,54.06c-2,6.91-3.67,12.51-4.81,16.4l-1.32,4.46c-.15.5-.27.88-.35,1.16a3.46,3.46,0,0,1-.14.39s0-.14.1-.4.17-.67.31-1.17c.28-1,.7-2.55,1.23-4.48,1.07-3.9,2.67-9.51,4.67-16.45,4-13.88,9.69-33,16-54.1s12.08-40.2,16.16-54.05c2-6.91,3.67-12.51,4.81-16.41.57-1.92,1-3.42,1.31-4.46.15-.49.27-.88.36-1.15S818.07,438.66,818.07,438.66Z" fill="#e1e1e1"/>
<path d="M792.17,471.33a4.45,4.45,0,0,1,.48.81c.29.54.69,1.32,1.17,2.3.95,1.95,2.19,4.68,3.51,7.71s2.44,5.7,3.33,7.8l1,2.35a4.25,4.25,0,0,1,.34.88,3.65,3.65,0,0,1-.5-.8c-.28-.54-.68-1.32-1.15-2.3-.93-2-2.14-4.71-3.45-7.75l-3.39-7.76c-.41-.92-.75-1.71-1-2.35A3.58,3.58,0,0,1,792.17,471.33Z" fill="#e1e1e1"/>
<path d="M803.24,493.2c0-.11,5.46-2.93,12.31-6.29s12.45-6,12.51-5.89-5.46,2.93-12.31,6.29S803.29,493.31,803.24,493.2Z" fill="#e1e1e1"/>
<path d="M792,525.16a4,4,0,0,1,.94-.22l2.58-.46c2.18-.38,5.19-.93,8.49-1.65s6.26-1.46,8.4-2l2.54-.66a4,4,0,0,1,.95-.19,3.73,3.73,0,0,1-.9.36c-.59.2-1.44.48-2.5.79-2.13.64-5.09,1.43-8.4,2.15s-6.33,1.22-8.53,1.53c-1.09.15-2,.26-2.6.31A4.19,4.19,0,0,1,792,525.16Z" fill="#e1e1e1"/>
<path d="M777.65,507.58a3.92,3.92,0,0,1,.64.63c.39.42.94,1,1.61,1.81,1.35,1.54,3.19,3.69,5.19,6.08s3.81,4.58,5.09,6.17l1.51,1.9a4,4,0,0,1,.5.74,3.86,3.86,0,0,1-.64-.63c-.39-.42-.94-1-1.61-1.81-1.35-1.54-3.18-3.69-5.19-6.08s-3.81-4.57-5.09-6.17c-.64-.79-1.16-1.44-1.5-1.9A3.47,3.47,0,0,1,777.65,507.58Z" fill="#e1e1e1"/>
<path d="M764.17,534.54a5.64,5.64,0,0,1,.8.81l2.08,2.31c1.73,2,4.11,4.71,6.71,7.75s4.94,5.81,6.61,7.83l2,2.4a6,6,0,0,1,.68.93,6,6,0,0,1-.81-.81l-2.07-2.32c-1.74-2-4.11-4.7-6.71-7.74s-4.94-5.81-6.61-7.83l-2-2.41A4.6,4.6,0,0,1,764.17,534.54Z" fill="#e1e1e1"/>
<path d="M782.71,555.91a6.06,6.06,0,0,1,1.18-.31l3.25-.69c2.75-.59,6.54-1.41,10.7-2.44s7.9-2,10.6-2.8l3.21-.89a9.07,9.07,0,0,1,1.19-.28,6.3,6.3,0,0,1-1.14.45c-.74.26-1.82.61-3.17,1-2.68.83-6.42,1.9-10.59,2.92s-8,1.81-10.73,2.32c-1.39.25-2.51.44-3.29.56A6.76,6.76,0,0,1,782.71,555.91Z" fill="#e1e1e1"/>
<rect x="286.9" y="471.12" width="160.86" height="74.19" fill="#f5f5f5"/>
<path d="M443.94,541.81H290.59V475H443.94Zm-152.35-1H442.94V476H291.59Z" fill="#e1e1e1"/>
<rect x="447.77" y="471.12" width="39.3" height="74.19" fill="#e1e1e1"/>
<path d="M291.09,495.7H443.44a.21.21,0,0,0,0-.41H291.09a.21.21,0,0,0,0,.41Z" fill="#e1e1e1"/>
<path d="M367.76,495.49a165.2,165.2,0,0,0,.05-20.15.21.21,0,0,0-.41,0,169.32,169.32,0,0,0,.05,20.15.16.16,0,0,0,.31,0Z" fill="#e1e1e1"/>
<path d="M408.77,485.42a2.08,2.08,0,1,1-2.08-2.08A2.08,2.08,0,0,1,408.77,485.42Z" fill="#e1e1e1"/>
<path d="M328.81,485.42a2.08,2.08,0,1,1-2.07-2.08A2.07,2.07,0,0,1,328.81,485.42Z" fill="#e1e1e1"/>
<path d="M369.34,508.42a2.08,2.08,0,1,1-2.08-2.07A2.08,2.08,0,0,1,369.34,508.42Z" fill="#e1e1e1"/>
<polygon points="306.14 545.31 297.86 591.89 302.51 591.89 317.78 545.31 306.14 545.31" fill="#e1e1e1"/>
<polygon points="436.39 545.31 443.31 591.97 438.65 591.97 424.74 545.31 436.39 545.31" fill="#e1e1e1"/>
<polygon points="467.48 545.31 475.33 591.97 470.67 591.97 455.84 545.31 467.48 545.31" fill="#e1e1e1"/>
<path d="M369.2,529.42a2.08,2.08,0,1,1-2.08-2.08A2.08,2.08,0,0,1,369.2,529.42Z" fill="#e1e1e1"/>
<path d="M291.09,518.67H443.44a.2.2,0,0,0,0-.4H291.09a.2.2,0,0,0,0,.4Z" fill="#e1e1e1"/>
<rect x="685.01" y="110.13" width="101.7" height="136.41" fill="#ececec"/>
<rect x="690.3" y="115.49" width="91.12" height="125.69" fill="#fafafa"/>
<rect x="719.83" y="158.97" width="34.79" height="39.75" fill="#ececec"/>
<rect x="753.69" y="267.61" width="66.05" height="88.58" transform="translate(474.81 1098.61) rotate(-90)" fill="#ececec"/>
<rect x="745.9" y="282.32" width="81.62" height="59.17" fill="#fafafa"/>
<rect x="775.75" y="298.11" width="22.59" height="25.81" transform="translate(476.02 1098.06) rotate(-90)" fill="#ececec"/>
<rect x="33.43" y="162.81" width="64.53" height="86.55" fill="#ececec"/>
<rect x="36.79" y="166.21" width="57.81" height="79.75" fill="#fafafa"/>
<rect x="55.52" y="193.8" width="22.07" height="25.22" fill="#ececec"/>
<polygon points="392.6 428.97 388.2 469.78 444.56 469.78 449.23 428.97 392.6 428.97" fill="#ececec"/>
<polygon points="394.92 431.9 390.64 467.62 441.5 467.62 445.62 431.9 394.92 431.9" fill="#fafafa"/>
<polygon points="403.48 437.91 400.85 461.61 432.94 461.61 434.59 437.91 403.48 437.91" fill="#e1e1e1"/>
<polyline points="447.22 446.55 458.86 469.95 444.56 469.78 447.4 445.02" fill="#f5f5f5"/>
<rect x="132.67" y="100.98" width="465.23" height="306.23" fill="#f5f5f5"/>
<path d="M597.9,407.21c0-2.09-.1-119.43-.26-306.22l.26.25-465.19.07h0L133,101c0,108.93,0,212.59,0,306.22l-.3-.29,465.23.29-465.23.3h-.29v-.3c0-93.63,0-197.29,0-306.22v-.33h.36l465.19.07h.26V101C598,287.78,597.9,405.12,597.9,407.21Z" fill="#2b032e" data-secondary="true"/>
<path d="M597.9,128.23c0,.18-104.15.32-232.6.32s-232.63-.14-232.63-.32,104.13-.32,232.63-.32S597.9,128.05,597.9,128.23Z" fill="#2b032e" data-secondary="true"/>
<rect x="176.02" y="173.54" width="390.01" height="53.38" fill="#e1e1e1"/>
<rect x="169.35" y="320.26" width="86.59" height="78.8" fill="#e1e1e1"/>
<rect x="271.7" y="320.26" width="86.59" height="78.8" fill="#e1e1e1"/>
<rect x="371" y="320.26" width="86.59" height="78.8" fill="#e1e1e1"/>
<path d="M324.18,283.57H230.32A14.31,14.31,0,0,1,216,269.26h0a14.3,14.3,0,0,1,14.3-14.3h93.86a14.3,14.3,0,0,1,14.3,14.3h0A14.31,14.31,0,0,1,324.18,283.57Z" fill="#e1e1e1"/>
<path d="M433.89,283.57s.44-.05,1.28-.1c.42,0,.94-.14,1.56-.23a16.15,16.15,0,0,0,2.08-.63,14.16,14.16,0,0,0,9-10.46,14.29,14.29,0,0,0-1.66-10,14.09,14.09,0,0,0-9.78-6.79,49.93,49.93,0,0,0-6.88-.22l-7.38,0-16,0-175.7.09a14,14,0,0,0-.93,27.92c2,.1,4.06,0,6.07.05l46.65,0,79,.07,53.26.1,14.47.06,3.77,0,1.28,0-1.28,0-3.77,0-14.47.06-53.26.11-79,.07H235.47c-2,0-4,.05-6.11,0a14.62,14.62,0,0,1,1-29.2l175.7.09,16,0h7.38a49.56,49.56,0,0,1,6.94.24,14.45,14.45,0,0,1,10,7,14.34,14.34,0,0,1-7.52,20.73,14.88,14.88,0,0,1-2.11.6c-.63.08-1.15.18-1.57.21C434.33,283.57,433.89,283.57,433.89,283.57Z" fill="#2b032e" data-secondary="true"/>
<path d="M308.67,293.56h1.07l-1.31,6.55h4.05l-.18.93h-5.12Z" fill="#2b032e" data-secondary="true"/>
<path d="M313.29,298.66a3.22,3.22,0,0,1,3.32-3.33,2.38,2.38,0,0,1,2.65,2.43A3.22,3.22,0,0,1,316,301.1,2.4,2.4,0,0,1,313.29,298.66Zm4.93-.85a1.49,1.49,0,0,0-1.68-1.59,2.24,2.24,0,0,0-2.21,2.4,1.5,1.5,0,0,0,1.68,1.59A2.22,2.22,0,0,0,318.22,297.81Z" fill="#2b032e" data-secondary="true"/>
<path d="M326.53,295.38,325.4,301h-1l.14-.69a2.81,2.81,0,0,1-2,.75,2.33,2.33,0,0,1-2.49-2.44,3.16,3.16,0,0,1,3.2-3.33,2.15,2.15,0,0,1,2,1l.19-1ZM325,297.81a1.5,1.5,0,0,0-1.69-1.59,2.24,2.24,0,0,0-2.21,2.4,1.5,1.5,0,0,0,1.69,1.59A2.23,2.23,0,0,0,325,297.81Z" fill="#2b032e" data-secondary="true"/>
<path d="M334.26,293.12,332.68,301h-1l.14-.69a2.84,2.84,0,0,1-2,.75,2.34,2.34,0,0,1-2.5-2.44,3.16,3.16,0,0,1,3.2-3.33,2.15,2.15,0,0,1,2,1l.65-3.23Zm-2,4.69a1.5,1.5,0,0,0-1.69-1.59,2.24,2.24,0,0,0-2.21,2.4,1.5,1.5,0,0,0,1.68,1.59A2.23,2.23,0,0,0,332.28,297.81Z" fill="#2b032e" data-secondary="true"/>
<path d="M335.75,295.38h1L335.65,301h-1Zm.17-1.71a.71.71,0,0,1,.74-.71.62.62,0,0,1,.65.59.71.71,0,0,1-.75.74A.62.62,0,0,1,335.92,293.67Z" fill="#2b032e" data-secondary="true"/>
<path d="M343.67,297.21a4,4,0,0,1-.06.66L343,301h-1l.63-3.17a2.79,2.79,0,0,0,.05-.47c0-.74-.42-1.16-1.31-1.16a2,2,0,0,0-2.09,1.81l-.6,3h-1l1.12-5.66h1l-.14.73a2.75,2.75,0,0,1,2.05-.78A1.8,1.8,0,0,1,343.67,297.21Z" fill="#2b032e" data-secondary="true"/>
<path d="M351.44,295.38l-1,4.89c-.41,2.05-1.51,2.91-3.39,2.91a3.92,3.92,0,0,1-2.58-.81l.56-.79a3.14,3.14,0,0,0,2.1.69,2,2,0,0,0,2.25-1.84l.08-.4a2.87,2.87,0,0,1-2.05.77,2.27,2.27,0,0,1-2.52-2.3,3.11,3.11,0,0,1,3.23-3.17,2.21,2.21,0,0,1,2.11,1.09l.21-1Zm-1.57,2.31c0-.91-.62-1.47-1.69-1.47a2.14,2.14,0,0,0-2.22,2.21c0,.92.63,1.48,1.69,1.48A2.14,2.14,0,0,0,349.87,297.69Z" fill="#2b032e" data-secondary="true"/>
<path d="M354.78,300.42a.75.75,0,0,1,.76-.78.66.66,0,0,1,.67.69.75.75,0,0,1-.74.77A.68.68,0,0,1,354.78,300.42Z" fill="#2b032e" data-secondary="true"/>
<path d="M357.2,300.42a.75.75,0,0,1,.76-.78.66.66,0,0,1,.67.69.75.75,0,0,1-.74.77A.68.68,0,0,1,357.2,300.42Z" fill="#2b032e" data-secondary="true"/>
<path d="M359.62,300.42a.76.76,0,0,1,.76-.78.66.66,0,0,1,.68.69.75.75,0,0,1-.75.77A.68.68,0,0,1,359.62,300.42Z" fill="#2b032e" data-secondary="true"/>
<path d="M150.44,115.93a3.41,3.41,0,1,1-3.41-3.41A3.41,3.41,0,0,1,150.44,115.93Z" fill="#2b032e" data-secondary="true"/>
<path d="M164.94,115.93a3.41,3.41,0,1,1-3.41-3.41A3.41,3.41,0,0,1,164.94,115.93Z" fill="#2b032e" data-secondary="true"/>
<path d="M179.43,115.93a3.41,3.41,0,1,1-3.41-3.41A3.41,3.41,0,0,1,179.43,115.93Z" fill="#2b032e" data-secondary="true"/>
<circle cx="549.41" cy="231.24" r="162.37" fill="#f5f5f5"/>
<path d="M711.78,231.24s0-.9-.1-2.64c0-.87-.06-1.95-.1-3.24s-.06-2.78-.23-4.48-.28-3.58-.44-5.67-.55-4.36-.86-6.82a169.24,169.24,0,0,0-3.3-16.81,160.42,160.42,0,0,0-6.65-20.39,157.1,157.1,0,0,0-11.29-22.86,164.18,164.18,0,0,0-41.21-46.1,161.9,161.9,0,0,0-68.26-30.3,165.19,165.19,0,0,0-63.53.73,161.78,161.78,0,0,0-62.73,28.25,178.51,178.51,0,0,0-18.29,15.76,175.36,175.36,0,0,0-16,18.68,159.27,159.27,0,0,0-13.21,21.27c-.94,1.89-2,3.73-2.83,5.67s-1.74,3.86-2.62,5.79c-1.56,3.95-3.18,7.9-4.47,12a158.81,158.81,0,0,0-6.17,25.07,161.91,161.91,0,0,0,0,52.17,158.66,158.66,0,0,0,6.17,25.08l1,3,.51,1.52.59,1.49,2.34,5.93,2.62,5.8c.84,1.94,1.89,3.78,2.82,5.67a159.72,159.72,0,0,0,13.22,21.27,174.61,174.61,0,0,0,16,18.7,178.24,178.24,0,0,0,18.29,15.75,162.51,162.51,0,0,0,41.07,22.08,172.26,172.26,0,0,0,21.67,6.18,164.65,164.65,0,0,0,63.54.73,161.74,161.74,0,0,0,68.26-30.31,163.85,163.85,0,0,0,41.2-46.1,155.6,155.6,0,0,0,11.29-22.86,161.55,161.55,0,0,0,6.66-20.38c1.53-6.26,2.6-11.9,3.29-16.81.31-2.47.64-4.73.86-6.82s.31-4,.44-5.67.2-3.19.23-4.48.08-2.37.1-3.24c.06-1.74.1-2.63.1-2.63s0,.89,0,2.63c0,.87,0,2-.07,3.24s0,2.79-.2,4.48-.26,3.6-.41,5.69-.53,4.36-.83,6.82A168.66,168.66,0,0,1,707,271a160.87,160.87,0,0,1-6.61,20.44,156.47,156.47,0,0,1-11.27,22.93,164.29,164.29,0,0,1-41.23,46.28,162.17,162.17,0,0,1-68.45,30.46,165.33,165.33,0,0,1-63.75-.68,173.46,173.46,0,0,1-21.75-6.19,163.22,163.22,0,0,1-41.23-22.14,177.58,177.58,0,0,1-18.37-15.81,175.89,175.89,0,0,1-16.08-18.76A160,160,0,0,1,405,306.12c-.94-1.9-2-3.74-2.84-5.69s-1.75-3.87-2.63-5.82-1.56-4-2.35-6l-.59-1.49-.51-1.53-1-3a158.3,158.3,0,0,1-6.2-25.18,162.45,162.45,0,0,1,0-52.38,157.65,157.65,0,0,1,6.2-25.17c1.29-4.1,2.92-8.06,4.49-12q1.31-2.91,2.63-5.81c.84-2,1.9-3.79,2.83-5.69A160.93,160.93,0,0,1,418.27,135a175.77,175.77,0,0,1,16.08-18.75,178.53,178.53,0,0,1,18.36-15.81,170.69,170.69,0,0,1,20.05-12.68,173.09,173.09,0,0,1,21.18-9.46,175.17,175.17,0,0,1,21.75-6.19,165.26,165.26,0,0,1,63.74-.68,162.17,162.17,0,0,1,68.45,30.46,164.23,164.23,0,0,1,41.24,46.28,157.48,157.48,0,0,1,11.27,22.93A160.36,160.36,0,0,1,707,191.52a168.52,168.52,0,0,1,3.24,16.84c.3,2.47.62,4.74.83,6.83s.29,4,.41,5.69.18,3.19.2,4.48.05,2.37.07,3.24C711.78,230.34,711.78,231.24,711.78,231.24Z" fill="#2b032e" data-secondary="true"/>
<g clip-path="url(#ae79a4e4-ef12-429e-8bc2-a7c53dcd0d46)">
<path d="M484.35,287.92a87.17,87.17,0,1,1,125,1.89l43.87,42.83a147.35,147.35,0,1,0-209-1.36Z" fill="#d1d3d4"/>
<g opacity="0.8">
<path d="M626.51,227.36h79.25s-8,64.5-9.62,65.7-48.48,55.3-48.48,55.3l-53.29-63.31Z"/>
</g>
<g opacity="0.7">
<polygon points="605.13 174 661.22 118.96 700.69 177.86 705.95 227.35 627.47 227.36 613.17 195.89 605.13 174"/>
</g>
<g opacity="0.5">
<path d="M552.86,154c-1-1.61,0-79.33,0-79.33l48.32,6.07,59.49,38.4-57.15,56.09-36-5.21Z"/>
</g>
<g opacity="0.3">
<path d="M437.77,122c1.2.4,53.29,56.1,53.29,56.1l46.47-18.43,14.91-18.6.42-66.34-55.39,6.07Z"/>
</g>
<g opacity="0.1">
<path d="M396.85,227.36c1.2.8,88.14,0,88.14,0l-1.53-57.22-42-44.52-28.62,34Z"/>
</g>
</g>
<circle cx="551.06" cy="231.24" r="33.83" fill="#e1e1e1"/>
<path d="M541.1,233.5h0A9.6,9.6,0,0,0,552.94,240l117.65-33.39L549.17,221.27A9.6,9.6,0,0,0,541.1,233.5Z" fill="#939598"/>
<path d="M533,304.41l-6.48,32.83h-8.58l3.38-17.31L510.39,334h-4.08l-6-14.07-3.47,17.31h-8.53l6.56-32.83h7.55l7.7,19,14.91-19Z" fill="#d1d3d4"/>
<path d="M564.61,311.82l-5.07,25.42H551.1l.52-2.39a10.45,10.45,0,0,1-7.37,2.81c-5.49,0-10.74-4.17-10.74-11.58,0-8.45,6.19-14.68,13.79-14.68,3.42,0,6.19,1,7.79,3.47l.61-3.05ZM553.4,323.4a4.49,4.49,0,0,0-4.83-4.87c-3.52,0-6.05,2.86-6.05,7.13a4.45,4.45,0,0,0,4.83,4.82C550.91,330.48,553.4,327.62,553.4,323.4Z" fill="#d1d3d4"/>
<path d="M584.4,324.62l6.89,12.62h-9.47l-3.47-6.66-6.15,6.66H562.12l12.71-13-6.71-12.38h9.34l3.37,6.47,6-6.47h9.81Z" fill="#d1d3d4"/>
<path d="M593.64,332.78a5.53,5.53,0,0,1,5.72-5.67,4.69,4.69,0,0,1,5,4.88,5.55,5.55,0,0,1-5.68,5.67A4.8,4.8,0,0,1,593.64,332.78Z" fill="#d1d3d4"/>
<path d="M534.7,361.79H545l-.5,2.55H529.72l.41-2,10-8c2.75-2.23,3.57-3.58,3.57-5.25s-1.26-2.95-4-2.95a7.31,7.31,0,0,0-5.3,2.28l-2-1.7a10.3,10.3,0,0,1,7.67-3.13c4.16,0,6.53,2.11,6.53,5.12,0,2.38-1,4.43-4.54,7.21Z" fill="#d1d3d4"/>
<path d="M554.65,346.39,553,352h2c5.24,0,7.61,2.17,7.61,5.48,0,4.24-3.48,7.08-8.72,7.08-3.11,0-5.74-1-7.18-2.57l1.56-2.26A7.69,7.69,0,0,0,554,362c3.55,0,5.6-1.55,5.6-4.16,0-2-1.47-3.25-5.22-3.25h-5l3.19-10.72h11.56l-.5,2.55Z" fill="#d1d3d4"/>
<path d="M565.43,357.05c0-7.12,4-13.44,10.36-13.44,4.31,0,6.91,2.78,6.91,7.52,0,7.12-4,13.44-10.33,13.44C568,364.57,565.43,361.79,565.43,357.05Zm14.34-5.86c0-3.25-1.58-5-4.21-5-4.63,0-7.2,6-7.2,10.77,0,3.25,1.58,5,4.24,5C577.2,362,579.77,356,579.77,351.19Z" fill="#d1d3d4"/>
<path d="M612.26,311.65l-32.63-33.06,4.14-43.06.75-.86c.4-.47.86-1,1.4-1.55a8.51,8.51,0,0,1,2.16-1.61,12.72,12.72,0,0,1,3.12-1.23c1-.15,1.36-1.44.55-1.87s-3.64-.1-6.46,1.68-1.1-3.11-.51-4.9,2.15-7.42,1.74-8c-.6-.89-1.69-.39-2.24,1.41s-2.57,7.1-3.51,6.77,2.21-9.41,2.21-9.41,1-1.85-.09-2.26c-1.93-.76-4.54,9.12-4.76,10.07-.16.66-1.19.33-1-.37s3.34-9,1.38-9.78c-1.5-.61-2.23,8.11-3.83,9.49s1.23-6.57-.23-7.09c-.55-.19-1-.26-2,4.52a92.72,92.72,0,0,0-1.86,10h0L560.38,282l32.12,42.52Z" fill="#f9b499"/>
<path d="M628.9,217c-1.35.78,2.87,8.09,1,7s-4.1-9.52-5.47-8.65c-1.78,1.12,2.77,8.71,3.11,9.38s-.63,1.15-.91.53c-.39-.89-4.73-10.15-6.49-9.06-1,.61.32,2.25.32,2.25s4.71,8.37,3.86,8.86-3.8-4.33-4.67-6-2-2-2.45-1c-.3.67,2.25,5.92,3.15,7.58s3.46,6.16.37,4.91-5.93-1.06-6.65-.49-.16,1.78.87,1.74a12.08,12.08,0,0,1,3.29.65,8.37,8.37,0,0,1,2.41,1.2c.63.46,1.18.88,1.66,1.27l.89.71,17.63,43.47-16,37.28,24.83,9.24,11.16-49.3-25.58-48h0a94.14,94.14,0,0,0-3.62-9.49C629.81,216.56,629.4,216.7,628.9,217Z" fill="#f9b499"/>
<path d="M684.28,481.13l-16.13-83-22.77,2v-.19l-41.59,3.76S601.84,499,601.15,499l11.39,86.86v0l32.84-1.5L632.69,497.9l4.68-69.38.94-1.28,19,70.94L722,571.41,743.1,551Z" fill="#2b032e" data-secondary="true"/>
<path d="M612.26,195.66a4.73,4.73,0,0,1-.24-.46l-.66-1.37c-.29-.59-.62-1.35-1.07-2.21s-1-1.84-1.6-3-1.41-2.27-2.21-3.57-1.82-2.64-2.89-4.08a78.58,78.58,0,0,0-8.17-9,71.79,71.79,0,0,0-27.13-15.79,65.29,65.29,0,0,0-18.37-3,71.41,71.41,0,0,0-38.26,10.19,65.45,65.45,0,0,0-14.46,11.72,71.74,71.74,0,0,0-15.68,27.2,78.55,78.55,0,0,0-2.61,11.87c-.21,1.78-.37,3.44-.48,5s-.14,2.94-.14,4.2,0,2.38.07,3.35.14,1.79.18,2.46.08,1.14.11,1.51a3,3,0,0,1,0,.52,2.92,2.92,0,0,1-.08-.51c0-.37-.1-.87-.17-1.51s-.18-1.48-.24-2.45-.08-2.11-.13-3.37,0-2.67.08-4.22.24-3.2.43-5a76.65,76.65,0,0,1,2.54-12,71.49,71.49,0,0,1,15.68-27.46,65.65,65.65,0,0,1,14.57-11.86,71.52,71.52,0,0,1,38.59-10.28,66.08,66.08,0,0,1,18.54,3,71.69,71.69,0,0,1,27.26,16,77.74,77.74,0,0,1,8.15,9.12c1.06,1.45,2,2.83,2.86,4.12s1.56,2.51,2.16,3.62,1.11,2.11,1.56,3,.74,1.64,1,2.25.45,1.05.6,1.39A2.83,2.83,0,0,1,612.26,195.66Z" fill="#2b032e" data-secondary="true"/>
<path d="M598.27,192.27a5.72,5.72,0,0,1-.58-.74c-.37-.49-.85-1.26-1.58-2.17a63.13,63.13,0,0,0-6.55-7.37,61.54,61.54,0,0,0-28.15-15.47,60.88,60.88,0,0,0-17.77-1.43,62,62,0,0,0-23.49,6.34c-1.06.49-1.84,1-2.39,1.23a5.38,5.38,0,0,1-.85.4,4.92,4.92,0,0,1,.79-.52c.53-.3,1.29-.81,2.33-1.34a57,57,0,0,1,9.13-3.87,59.18,59.18,0,0,1,49.07,5.35,59.66,59.66,0,0,1,11.65,9,56.87,56.87,0,0,1,6.43,7.54c.7.94,1.15,1.74,1.49,2.25A4.74,4.74,0,0,1,598.27,192.27Z" fill="#2b032e" data-secondary="true"/>
<path d="M660.83,337.3l-5.74,29.88c12,16.67,13.07,31,13.07,31l-64.37,5.53c1.2-10.1,7.42-31.95,7.42-31.95l-9.34-31.9-18.73-24.39,18.59-16.75c-.36.95,17.42,11.24,17.42,11.24l25.54.21a21.7,21.7,0,0,1,3.67.73l12.47-32.34s9.65,14.2,6.42,31.61c-2.3,12.4-1.87,15.3-6.42,27.16" fill="#914296" data-primary="true"/>
<g opacity="0.3">
<path d="M602.76,298.45c-2.64,3.43-4.39,7.72-4,12s3.34,8.48,7.52,9.59c2.86.76,6,.08,8.8,1,5.19,1.75,7.93,8.53,13.38,9,4.94.44,8.52-4.54,13.12-6.38,2.38-.95,5-1,7.53-1.45,5.23-.86,10.38-3.38,13.43-7.71s3.55-10.63.37-14.87c-3.4-4.53-9.7-5.63-15.36-5.64a64.57,64.57,0,0,0-25,5.05,15.79,15.79,0,0,0-4.76,2.78,6.41,6.41,0,0,0-2.25,4.87"/>
</g>
<path d="M676.37,295a6.42,6.42,0,0,0-4-5.11c-2.48-.95-5.39-.27-7.82-1.35-3-1.35-4.3-4.9-5.07-8.12s-1.49-6.79-4.1-8.83c-1.8-1.42-4.19-1.83-6.13-3-2.88-1.78-4.45-5-6.42-7.76a14.83,14.83,0,0,0-2.63-2.86,1.67,1.67,0,0,0-.12-.16c-4.18-5.05-15.35-5.71-20.17-1.27l.18-.16c-9,.67-14.71,15.21-14.8,24.42-.06,5.74,1.79,11.74-.38,17-1.26,3.09-3.79,5.58-4.75,8.77a9.75,9.75,0,0,0,17.13,8.67c-.14,2.34,1.79,4.4,4,5.19s4.62.61,7,.42c5-.4,10.76-1.27,13.32-5.57,1.72,2.57,5.1,3.63,8.19,3.4a25,25,0,0,0,8.8-1.8,3.42,3.42,0,0,1-.33-.51,7.14,7.14,0,0,0,1.34-.64c2.37-1.45,3.84-4.59,2.73-7.15l2.69,3.13a10.75,10.75,0,0,0,4.51-13.61,13,13,0,0,1,4.24,2.83A6.44,6.44,0,0,0,676.37,295Z" fill="#2b032e" data-secondary="true"/>
<g opacity="0.2">
<path d="M675.23,298.85a4.43,4.43,0,0,0-.58-2.91,6,6,0,0,0-2.61-2.31,14.42,14.42,0,0,0-4.59-1.06,18.38,18.38,0,0,1-5.74-1.22,6.86,6.86,0,0,1-2.62-2.07,10.27,10.27,0,0,1-1.59-3.13c-.77-2.28-.94-4.79-1.7-7.18a10.73,10.73,0,0,0-1.67-3.37,5.55,5.55,0,0,0-3.12-2.05c-1.26-.31-2.62-.29-4-.55a6.46,6.46,0,0,1-3.53-1.93c-1.88-1.93-2.63-4.43-3.45-6.59a14.74,14.74,0,0,0-3.33-5.59,13.22,13.22,0,0,0-12.9-3.55,24.2,24.2,0,0,0-2.89,1,3.12,3.12,0,0,1,.69-.42,11.32,11.32,0,0,1,2.14-.86,13.37,13.37,0,0,1,13.33,3.42,14.89,14.89,0,0,1,3.51,5.74c.84,2.19,1.6,4.59,3.35,6.37a5.81,5.81,0,0,0,3.21,1.74c1.25.25,2.61.22,4,.56a6.15,6.15,0,0,1,3.46,2.27,11.4,11.4,0,0,1,1.77,3.58c.78,2.5.93,5,1.67,7.18a7.52,7.52,0,0,0,3.87,4.91,18.26,18.26,0,0,0,5.57,1.24,14.52,14.52,0,0,1,4.69,1.2,6,6,0,0,1,2.66,2.51,4.14,4.14,0,0,1,.54,2.25A2.2,2.2,0,0,1,675.23,298.85Z"/>
</g>
<g opacity="0.2">
<path d="M659.43,316.67s.26-.11.68-.4a3.44,3.44,0,0,0,1.25-1.81,4.78,4.78,0,0,0-.22-3.43,8.21,8.21,0,0,0-3.26-3.29c-1.49-.95-3.33-1.65-5.13-2.8a9.41,9.41,0,0,1-2.5-2.2,9.22,9.22,0,0,1-1.54-3.18c-.66-2.34-.63-4.87-1-7.38s-1.08-5.18-3.28-6.7-5-2-6.91-4a12.77,12.77,0,0,1-3-6.85c-.39-2.35-.55-4.58-1.08-6.59A15.18,15.18,0,0,0,631,263a16.22,16.22,0,0,0-6.48-5.12c-1.83-.77-2.94-.92-2.93-1a4.23,4.23,0,0,1,.8.11,14.05,14.05,0,0,1,2.22.64,16,16,0,0,1,6.75,5.09A15.49,15.49,0,0,1,634,268c.56,2.06.74,4.32,1.14,6.62a12.31,12.31,0,0,0,2.87,6.5c1.73,1.83,4.51,2.27,6.84,3.88a7.49,7.49,0,0,1,2.56,3.27,15,15,0,0,1,1,3.87c.31,2.58.27,5.06.89,7.3a8.92,8.92,0,0,0,1.41,3,9.13,9.13,0,0,0,2.35,2.09c1.73,1.13,3.56,1.87,5.08,2.86a8.59,8.59,0,0,1,3.35,3.53,5,5,0,0,1,.13,3.66,3.51,3.51,0,0,1-1.42,1.84A1.93,1.93,0,0,1,659.43,316.67Z"/>
</g>
<g opacity="0.2">
<path d="M629.57,319.38a4.18,4.18,0,0,0,.81-2.41,7,7,0,0,0-.64-3c-.46-1.09-1.22-2.24-1.87-3.65a7.28,7.28,0,0,1-.53-5,27.17,27.17,0,0,1,2.28-5.29,12.44,12.44,0,0,0,1.61-5.88,10.21,10.21,0,0,0-2.15-6.1c-1.36-1.84-3.05-3.38-4.38-5.18a11.87,11.87,0,0,1-1.6-2.89,11.71,11.71,0,0,1-.63-3.1,25.23,25.23,0,0,1,.45-5.75c.3-1.77.6-3.4.71-4.9a11.42,11.42,0,0,0-1.32-6.86,9.91,9.91,0,0,0-1.67-2s.22.09.57.38a6.34,6.34,0,0,1,1.31,1.48,11.34,11.34,0,0,1,1.56,7c-.08,1.53-.36,3.19-.63,5a24.48,24.48,0,0,0-.38,5.62,10.35,10.35,0,0,0,.61,2.93,11.57,11.57,0,0,0,1.53,2.73c1.28,1.72,3,3.26,4.39,5.17a10.82,10.82,0,0,1,2.26,6.47,12.9,12.9,0,0,1-1.71,6.15,27.26,27.26,0,0,0-2.29,5.16,6.86,6.86,0,0,0,.42,4.7c.6,1.37,1.34,2.55,1.8,3.69a7.32,7.32,0,0,1,.55,3.1,3.81,3.81,0,0,1-.6,1.89A1.94,1.94,0,0,1,629.57,319.38Z"/>
</g>
<g opacity="0.2">
<path d="M607.91,318.37a1.41,1.41,0,0,1-.36-.6,3,3,0,0,1,0-2,5.42,5.42,0,0,1,1.88-2.55,25.36,25.36,0,0,0,3.17-2.61,8.59,8.59,0,0,0,2-4.36,10.17,10.17,0,0,0-.88-5.48c-.7-1.85-1.63-4-1.3-6.31a22.27,22.27,0,0,1,2.35-6.5,13.6,13.6,0,0,0,1.66-6.4,28,28,0,0,0-1.34-6.14,18.74,18.74,0,0,1-.3-10.78,12.1,12.1,0,0,1,4-6.05,9.49,9.49,0,0,1,1.69-1.07,2.11,2.11,0,0,1,.65-.24,17.55,17.55,0,0,0-2.18,1.5,12.21,12.21,0,0,0-3.75,6,18.53,18.53,0,0,0,.43,10.48,28,28,0,0,1,1.4,6.28,14.05,14.05,0,0,1-1.71,6.7,22,22,0,0,0-2.3,6.3c-.32,2.14.52,4.14,1.23,6a16.19,16.19,0,0,1,.84,2.9,8.39,8.39,0,0,1,0,2.87,8.94,8.94,0,0,1-2.23,4.59,24.35,24.35,0,0,1-3.27,2.58,5.22,5.22,0,0,0-1.87,2.35,3.1,3.1,0,0,0-.14,1.88C607.79,318.16,607.93,318.35,607.91,318.37Z"/>
</g>
<path d="M87.25,393.13s-6.19-19.8,4.91-31.39a.69.69,0,0,1,1.18.34C93.93,365.35,94.67,375.31,87.25,393.13Z" fill="#2b032e" data-secondary="true"/>
<path d="M94.52,439.82s3.79-20.39,19-25.44a.69.69,0,0,1,.89.85C113.42,418.4,109.42,427.54,94.52,439.82Z" fill="#2b032e" data-secondary="true"/>
<path d="M90.4,491s-2.3-20.62,10.82-29.88a.69.69,0,0,1,1.09.56C102.27,465,101.09,474.91,90.4,491Z" fill="#2b032e" data-secondary="true"/>
<path d="M101.88,542.45s-1.56-20.69,11.88-29.47a.69.69,0,0,1,1.07.6C114.67,516.89,113.14,526.76,101.88,542.45Z" fill="#2b032e" data-secondary="true"/>
<path d="M78.35,375.74S60,366.14,59.61,350.09a.68.68,0,0,1,1.07-.59C63.41,351.38,71,357.89,78.35,375.74Z" fill="#2b032e" data-secondary="true"/>
<path d="M98.09,418.25s-18.93-8.46-20.26-24.46a.69.69,0,0,1,1-.66C81.7,394.85,89.66,400.89,98.09,418.25Z" fill="#2b032e" data-secondary="true"/>
<path d="M87.2,465.68s-13-16.16-6.9-31a.69.69,0,0,1,1.22-.12C83.26,437.38,87.59,446.38,87.2,465.68Z" fill="#2b032e" data-secondary="true"/>
<path d="M100.08,521.49s-18.79-8.79-19.86-24.81a.69.69,0,0,1,1-.64C84.08,497.81,91.93,504,100.08,521.49Z" fill="#2b032e" data-secondary="true"/>
<path d="M126.32,487.11s8-19.16-2.06-31.71a.68.68,0,0,0-1.2.24C122.18,458.84,120.54,468.69,126.32,487.11Z" fill="#2b032e" data-secondary="true"/>
<path d="M101.67,533.27s6.38-19.74-4.62-31.44a.69.69,0,0,0-1.18.33C95.25,505.43,94.41,515.38,101.67,533.27Z" fill="#2b032e" data-secondary="true"/>
<path d="M136.45,463.7s17-11.9,15.28-27.86a.69.69,0,0,0-1.14-.45C148.12,437.62,141.46,445.05,136.45,463.7Z" fill="#2b032e" data-secondary="true"/>
<path d="M108.52,513.7s20.5-3.19,26-18.28a.69.69,0,0,0-.83-.9C130.49,495.43,121.23,499.16,108.52,513.7Z" fill="#3f3d56"/>
<path d="M97.22,557.8a4.14,4.14,0,0,1,.23-.55l.73-1.56a38.31,38.31,0,0,0,2.16-6.25c1.42-5.57,1.92-14.07-.19-24.16a129,129,0,0,0-4.48-16.23c-1.89-5.76-4.1-11.87-5.9-18.48a71.43,71.43,0,0,1-2.91-21.24c.27-7.51,2.5-15,4.94-22.48s5-14.78,5.73-22.13a33.81,33.81,0,0,0-4.06-20.45c-3.24-6-7.31-11.07-10.36-16.35a56.71,56.71,0,0,1-6.23-15.72,58.59,58.59,0,0,1-.39-24.36,45.27,45.27,0,0,1,2.54-8.6,3.65,3.65,0,0,1-.15.57l-.52,1.65a61.8,61.8,0,0,0-1.58,6.44,59.35,59.35,0,0,0,.63,24.17,56.88,56.88,0,0,0,6.25,15.52c3,5.22,7.14,10.31,10.44,16.34a34.45,34.45,0,0,1,4.18,20.86c-.76,7.48-3.3,14.84-5.74,22.3S87.9,462,87.62,469.36a71.08,71.08,0,0,0,2.84,21c1.77,6.57,4,12.68,5.82,18.46a126.62,126.62,0,0,1,4.41,16.32c2,10.17,1.47,18.76-.06,24.34a35.51,35.51,0,0,1-2.31,6.25l-.8,1.53A2.27,2.27,0,0,1,97.22,557.8Z" fill="#a7a9ac"/>
<path d="M91,368.34a18.4,18.4,0,0,1-.42,3.65c-.41,2.52-.88,5.47-1.41,8.73l-1.39,8.74a20.8,20.8,0,0,1-.65,3.61,15.38,15.38,0,0,1,.11-3.68c.2-2.26.6-5.37,1.16-8.79s1.16-6.49,1.64-8.71A16.58,16.58,0,0,1,91,368.34Z" fill="#a7a9ac"/>
<path d="M109.39,419.64a17.37,17.37,0,0,1-2.07,3L102,429.73l-5.31,7.07a20.86,20.86,0,0,1-2.27,2.89,15.07,15.07,0,0,1,1.82-3.2c1.24-1.9,3-4.47,5.14-7.22s4-5.2,5.52-6.93A17,17,0,0,1,109.39,419.64Z" fill="#a7a9ac"/>
<path d="M98.77,467.36a18.3,18.3,0,0,1-1.1,3.5l-3,8.3c-1.13,3.11-2.16,5.92-3,8.31a20,20,0,0,1-1.33,3.42,15.07,15.07,0,0,1,.81-3.59c.63-2.18,1.62-5.16,2.82-8.4s2.37-6.16,3.27-8.24A17.6,17.6,0,0,1,98.77,467.36Z" fill="#a7a9ac"/>
<path d="M111.09,519.13a18.08,18.08,0,0,1-1.23,3.47c-1,2.36-2.09,5.12-3.35,8.18s-2.36,5.84-3.32,8.2a19.69,19.69,0,0,1-1.45,3.37,14.92,14.92,0,0,1,.94-3.56c.71-2.16,1.8-5.1,3.12-8.3s2.59-6.06,3.56-8.11A17.41,17.41,0,0,1,111.09,519.13Z" fill="#a7a9ac"/>
<path d="M63.42,355.6a18,18,0,0,1,2.29,2.88l5.19,7.16,5.2,7.15a19.18,19.18,0,0,1,2.09,3,16.17,16.17,0,0,1-2.52-2.68c-1.46-1.74-3.38-4.22-5.4-7s-3.78-5.41-5-7.31A16.32,16.32,0,0,1,63.42,355.6Z" fill="#a7a9ac"/>
<path d="M82,399.06a18.32,18.32,0,0,1,2.46,2.73L90,408.63l5.63,6.82a19.69,19.69,0,0,1,2.27,2.88,15.35,15.35,0,0,1-2.68-2.52c-1.56-1.65-3.63-4-5.82-6.69s-4.1-5.16-5.44-7A16.74,16.74,0,0,1,82,399.06Z" fill="#a7a9ac"/>
<path d="M81.59,441.25a18.33,18.33,0,0,1,.94,3.55c.55,2.49,1.18,5.41,1.88,8.64s1.36,6.15,1.91,8.64a21,21,0,0,1,.71,3.6,14.91,14.91,0,0,1-1.25-3.47c-.63-2.18-1.4-5.22-2.13-8.6s-1.3-6.47-1.65-8.71A16.21,16.21,0,0,1,81.59,441.25Z" fill="#a7a9ac"/>
<path d="M84.28,502a19.14,19.14,0,0,1,2.41,2.78c1.59,2,3.44,4.34,5.5,6.93l5.51,6.91a19.13,19.13,0,0,1,2.22,2.92A15.76,15.76,0,0,1,97.28,519c-1.53-1.68-3.56-4.07-5.7-6.79s-4-5.23-5.32-7.08A16.32,16.32,0,0,1,84.28,502Z" fill="#a7a9ac"/>
<path d="M137.51,439.93a2.44,2.44,0,0,1,0,.46c0,.36,0,.8,0,1.33-.06,1.24-.13,2.93-.23,5-.24,4.42-.58,10.58-1,18h0v0c-1.34,7.51-5.16,15.82-10.29,23.9-3.77,6-7.72,11.36-11.12,16.39a117.2,117.2,0,0,0-8.34,13.78,58.33,58.33,0,0,0-3.9,10.12c-.33,1.23-.58,2.2-.72,2.86a4.93,4.93,0,0,1-.28,1,6.54,6.54,0,0,1,.12-1c.1-.67.3-1.65.59-2.91a52.69,52.69,0,0,1,3.7-10.28,110.33,110.33,0,0,1,8.23-13.94c3.39-5.06,7.31-10.48,11.06-16.4,5.11-8,8.91-16.23,10.3-23.62v.05c.51-7.37,1-13.53,1.26-17.95.17-2.09.3-3.77.4-5,.06-.52.1-1,.13-1.32A1.48,1.48,0,0,1,137.51,439.93Z" fill="#a7a9ac"/>
<path d="M124.87,462.08a17.13,17.13,0,0,1,.63,3.63c.28,2.25.6,5.36.84,8.82s.37,6.58.37,8.86a15.38,15.38,0,0,1-.23,3.67,20.1,20.1,0,0,1-.32-3.66c-.17-2.54-.37-5.52-.59-8.82s-.44-6.28-.62-8.82A17.78,17.78,0,0,1,124.87,462.08Z" fill="#a7a9ac"/>
<path d="M98.2,508.44a16.81,16.81,0,0,1,.92,3.56c.46,2.22,1,5.3,1.55,8.73s.9,6.53,1.09,8.8a15.75,15.75,0,0,1,.07,3.68,20.81,20.81,0,0,1-.62-3.62c-.38-2.52-.82-5.48-1.3-8.75s-1-6.22-1.33-8.74A17.15,17.15,0,0,1,98.2,508.44Z" fill="#a7a9ac"/>
<path d="M148.66,441.8a17.29,17.29,0,0,1-1.42,3.4c-1,2.05-2.37,4.85-4,7.89s-3.22,5.76-4.44,7.68a16.29,16.29,0,0,1-2.16,3,19.09,19.09,0,0,1,1.69-3.26l4.23-7.76,4.21-7.78A18.14,18.14,0,0,1,148.66,441.8Z" fill="#a7a9ac"/>
<path d="M129.12,499.42a16.65,16.65,0,0,1-2.76,2.42c-1.78,1.42-4.27,3.31-7.09,5.32s-5.43,3.75-7.37,4.93a16,16,0,0,1-3.25,1.73,19.64,19.64,0,0,1,2.95-2.19l7.22-5.1,7.21-5.12A17.84,17.84,0,0,1,129.12,499.42Z" fill="#a7a9ac"/>
<polygon points="88.97 551.42 82.99 591.65 120.25 591.65 115.42 551.42 88.97 551.42" fill="#2b032e" data-secondary="true"/>
<path d="M116.91,563.89c0,.21-6.73.38-15,.38s-15-.17-15-.38,6.72-.39,15-.39S116.91,563.67,116.91,563.89Z" fill="#3f3d56"/>
<path d="M117.65,567.09c0,.21-7,.39-15.52.39s-15.52-.18-15.52-.39,7-.39,15.52-.39S117.65,566.87,117.65,567.09Z" fill="#3f3d56"/>
</svg>