 <!DOCTYPE svg PUBLIC "-//W3C//DTD SVG 1.1//EN" "http://www.w3.org/Graphics/SVG/1.1/DTD/svg11.dtd">
<svg id="ac9a753e-ea1f-49dd-bc6b-c6bf830fbebb" data-name="Layer 1" xmlns="http://www.w3.org/2000/svg" width="865.76" height="682.89" viewBox="0 0 865.76 682.89">
<defs>
<style xmlns="http://www.w3.org/1999/xhtml">*, ::after, ::before { box-sizing: border-box; }
img, svg { vertical-align: middle; }
</style>
<style xmlns="http://www.w3.org/1999/xhtml">*, body, html { -webkit-font-smoothing: antialiased; }
img, svg { max-width: 100%; }
</style>
</defs>
<polygon points="754.37 459.24 778.87 438.88 790.32 514.92 768.05 514.92 754.37 459.24" fill="#2b032e" data-secondary="true"/>
<polygon points="761.69 431.88 778.87 438.88 754.37 459.24 728.92 459.24 761.69 431.88" fill="#2b032e" data-secondary="true"/>
<polygon points="761.69 431.88 778.87 438.88 754.37 459.24 728.92 459.24 761.69 431.88" opacity="0.2"/>
<polygon points="452.45 447.87 436.91 474.37 430.78 436.85 452.45 447.87" fill="#f7a48b"/>
<path d="M456.83,450.1l-26.05-13.25-6.13-37.54,5-1L417.87,333S444,275,510.79,266l39.2-9.91s2.14,20.52,28.17,17.46c0,0,14.7,1.53,28.18-17.46l75.33,21.34s30.82,6.78,34.67,44.8a26.86,26.86,0,0,1,0,5.67c-1.66,15.23-10,92.39-8.9,93.38s1.22,53.78,1.22,53.78V589.63H455.75l4.16-134.32A5.64,5.64,0,0,0,456.83,450.1Z" fill="#914296" data-primary="true"/>
<path d="M456.83,450.1l-26.05-13.25-6.13-37.54,5-1L417.87,333S444,275,510.79,266l39.2-9.91s2.14,20.52,28.17,17.46c0,0,14.7,1.53,28.18-17.46l75.33,21.34s30.82,6.78,34.67,44.8a26.86,26.86,0,0,1,0,5.67c-1.66,15.23-10,92.39-8.9,93.38s1.22,53.78,1.22,53.78V589.63H455.75l4.16-134.32A5.64,5.64,0,0,0,456.83,450.1Z" opacity="0.2"/>
<path d="M550.35,242.38,550,256.09s1.43,19.71,28.17,17.46c0,0,15.32,1.23,28.18-17.46V205.62Z" fill="#f9b499"/>
<path d="M142.1,433.6l81.44-15.38V589.63h177L390.4,406.26l39.29-8L415.45,319.7s-1.13-39.5-47.26-45.09L335.41,266s-17.07-6.26-31.44-8.17l-54.39,3.83-85.7,31.69s-46.83,11-30.38,81.59Z" fill="#914296" data-primary="true"/>
<path d="M260.86,212.09a110.43,110.43,0,0,1-11.28,49.57s15.19,15.77,34.38,12.5c0,0,16.66-.26,20-16.33V238.64Z" fill="#f9b499"/>
<path d="M304,238.64v15.59s-24-4.71-37-31.37C266.93,222.86,279.82,237.9,304,238.64Z" fill="#f7a48b"/>
<path d="M338.38,184.81s5.2,36.68-3,81.19A300.37,300.37,0,0,0,304,257.83V238.64Z" fill="#2b032e" data-secondary="true"/>
<ellipse cx="296.63" cy="186.91" rx="41.72" ry="55.93" transform="matrix(0.99, -0.15, 0.15, 0.99, -24.02, 45.1)" fill="#f9b499"/>
<path d="M316.65,155.59s-23.83,23.87-49.46,29.28l-6.33,27.22s6.16,72.79-73.47,100.35c0,0-24.49-16.84-52.06-47.77,0,0,19-8,46.86-47.47L133.5,243.54v-8s19.9-7.66,57.57-44.72l27.56-29.09s19-25.72,32.77-29.7c0,0-16.7-15.49-7.07-28.61a17.76,17.76,0,0,1,10.34-6.62c5.51-1.29,13.55-1.39,15.83,8a.17.17,0,0,0,.34,0c.65-3.42,4-15.27,17.92-10.44,0,0,18.8,3.67,7.87,29.4,0,0,46,6,40.39,52.14C337,175.94,325.65,172.17,316.65,155.59Z" fill="#2b032e" data-secondary="true"/>
<g opacity="0.2">
<path d="M229.23,341.34c1.19,3.67,2.2,7.37,3.14,11.09s1.8,7.46,2.62,11.21,1.56,7.51,2.22,11.29,1.28,7.57,1.71,11.4c-1.19-3.67-2.2-7.37-3.14-11.09s-1.8-7.46-2.62-11.21-1.56-7.51-2.22-11.29S229.66,345.17,229.23,341.34Z"/>
</g>
<g opacity="0.2">
<path d="M390.4,406.26c-.68-4.37-1.16-8.75-1.59-13.13s-.76-8.78-1.06-13.17-.51-8.79-.65-13.2-.23-8.81-.12-13.22c.68,4.36,1.16,8.74,1.59,13.13s.76,8.78,1.06,13.17.51,8.79.64,13.19S390.5,401.84,390.4,406.26Z"/>
</g>
<polygon points="155.61 431.05 164.88 463.78 200.76 447.41 215.63 419.71 155.61 431.05" fill="#f7a48b"/>
<path d="M309.69,417.49l8.57-8.17-6.48-124.08-12.91-7.81s-1.57,2.06-3.88,5.84A109.79,109.79,0,0,0,297,400.67,162.1,162.1,0,0,0,309.69,417.49Z" fill="#2b032e" data-secondary="true"/>
<path d="M309.69,417.49l8.57-8.17-6.48-124.08-12.91-7.81s-1.57,2.06-3.88,5.84A109.79,109.79,0,0,0,297,400.67,162.1,162.1,0,0,0,309.69,417.49Z" opacity="0.2"/>
<path d="M440.35,302.64l62.48,46.78L441.88,398.8s28.11,37.5,69.94,37.28l21-91.79V264.8S480,247.83,440.35,302.64Z" fill="#2b032e" data-secondary="true"/>
<path d="M440.35,302.64l62.48,46.78L441.88,398.8s28.11,37.5,69.94,37.28l21-91.79V264.8S480,247.83,440.35,302.64Z" opacity="0.2"/>
<polygon points="424.65 399.31 455.75 589.63 400.58 589.63 390.4 406.26 424.65 399.31" fill="#f9b499"/>
<line x1="660.24" y1="418.83" x2="707.4" y2="421.28" fill="none" stroke="#000" stroke-miterlimit="10" stroke-width="2" opacity="0.2"/>
<polygon points="694.29 421.28 687.86 466.88 678.02 466.88 660.24 418.83 694.29 421.28" fill="#f7a48b"/>
<ellipse cx="259.39" cy="196.34" rx="13.23" ry="16.25" transform="translate(-58.24 126.03) rotate(-24.64)" fill="#f9b499"/>
<path d="M550,236.8v19.29s25.22,8,46.23-29.63Z" fill="#f7a48b"/>
<ellipse cx="567.23" cy="189.63" rx="55.93" ry="41.72" transform="translate(295.1 722.23) rotate(-81.42)" fill="#f9b499"/>
<path d="M513,137s-5.3-32.67,34.3-26.55c0,0,12.84,2.86,19.9,7.35,0,0,18.49-9.8,30.74,3.27,0,0,31.85-5.72,35.52,30.63,0,0,21.64,17.15,2.45,42.46,0,0,10.21,24.5-29.6,34.71V205.62l-8.25-19.74s-.71-27.69-26.46-34.62a26,26,0,0,0-18.43,2S517.12,171.67,513,137Z" fill="#2b032e" data-secondary="true"/>
<ellipse cx="603.82" cy="197.97" rx="16.25" ry="13.23" transform="translate(16.33 440.14) rotate(-40.55)" fill="#f9b499"/>
<path d="M583.05,404c-69.2,74.32-127.3-1.63-127.3-1.63l64.73-53-64.73-48.54s56.41-79.56,127.3-5.78Z" fill="#2b032e" data-secondary="true"/>
<path d="M572.47,366.24s10.59,31,24.59,95.34c0,0,7.56,44.27,26.48,44.27,0,0,56,15.13,54.48-39L638.67,363.59S618.61,308,583.05,295.1c0,0-50.31-12.09-47.66-1.88,0,0-1,3.14,4.24,6.75a.19.19,0,0,1-.12.35,7.59,7.59,0,0,0-7.13,3.65,7.89,7.89,0,0,0-.26,8.08,7.6,7.6,0,0,0,4.19,3.35s-5.33.21-5.31,7.35c0,0-.82,5.11,8.17,6.74,0,0-9.6,8.37,8.16,18.17Z" fill="#f9b499"/>
<path d="M570.21,340.31a70.1,70.1,0,0,1-8.93-2.19c-2.92-.87-5.78-1.88-8.62-3s-5.64-2.27-8.39-3.58a70.33,70.33,0,0,1-8.08-4.38,71.83,71.83,0,0,1,8.93,2.19c2.92.87,5.78,1.88,8.62,3s5.63,2.28,8.38,3.59A72,72,0,0,1,570.21,340.31Z" fill="#f7a48b"/>
<path d="M536.31,315.4a75.66,75.66,0,0,1,9.19,1.75c3,.73,6,1.6,8.93,2.54s5.86,2,8.73,3.18a71.51,71.51,0,0,1,8.47,4,71.68,71.68,0,0,1-9.19-1.75c-3-.72-6-1.59-8.93-2.54s-5.86-2-8.73-3.18A71.51,71.51,0,0,1,536.31,315.4Z" fill="#f7a48b"/>
<path d="M539.63,300a72.61,72.61,0,0,1,9.26,1.67c3.05.7,6.05,1.55,9,2.47s5.92,1.95,8.82,3.1a72.43,72.43,0,0,1,8.57,3.91,74.74,74.74,0,0,1-9.26-1.67c-3-.71-6-1.55-9-2.48s-5.92-2-8.82-3.1A74.78,74.78,0,0,1,539.63,300Z" fill="#f7a48b"/>
<path d="M318.26,409.32a87.25,87.25,0,0,1-13.68-20.45,105.93,105.93,0,0,1-8.83-64.22c4.7-27.78,16-39.41,16-39.41l82.43,55.53Z" fill="#2b032e" data-secondary="true"/>
<path d="M243.47,376.08l-30,47.65-12.72,23.68L264,472.32l45-82,15.17-22.91s5.67-9-4.59-13.16c0,0,11-9.34-3.22-13.48,0,0,5.36-6.28-2.45-11.48,0,0-3.84-2.24-7-.67a.31.31,0,0,1-.42-.41c1.16-2.39,3.28-8.15-1.5-11,0,0-6.73-2.76-15.92,5.05,0,0-23.28,12.06-34,31.3Z" fill="#f9b499"/>
<path d="M298.87,358.07a34.78,34.78,0,0,1,3.53-5.16,59.57,59.57,0,0,1,4.14-4.55,55.93,55.93,0,0,1,4.59-4.1,34.11,34.11,0,0,1,5.19-3.49,33.07,33.07,0,0,1-3.53,5.16,58.2,58.2,0,0,1-8.73,8.65A34.11,34.11,0,0,1,298.87,358.07Z" fill="#f7a48b"/>
<path d="M287.84,344.29a31.77,31.77,0,0,1,3.77-4.65,50.89,50.89,0,0,1,4.31-4,49.34,49.34,0,0,1,4.72-3.51,31.28,31.28,0,0,1,5.27-2.84,31.28,31.28,0,0,1-3.76,4.66,52.21,52.21,0,0,1-4.31,4,54.61,54.61,0,0,1-4.73,3.51A30.9,30.9,0,0,1,287.84,344.29Z" fill="#f7a48b"/>
<path d="M319.54,354.25a19.71,19.71,0,0,1-2.1,4.18,32.44,32.44,0,0,1-2.74,3.62,31.39,31.39,0,0,1-3.23,3.19,19,19,0,0,1-3.87,2.63,19.22,19.22,0,0,1,2.09-4.18,31.35,31.35,0,0,1,2.75-3.62,32.44,32.44,0,0,1,3.23-3.19A19.37,19.37,0,0,1,319.54,354.25Z" fill="#f7a48b"/>
<polygon points="226.28 403.39 283.43 436.85 290.63 423.73 234.07 391.01 226.28 403.39" fill="#2b032e" data-secondary="true"/>
<circle cx="258.98" cy="413.73" r="12.79" fill="#fff" stroke="#2f2e41" stroke-miterlimit="10"/>
<polyline points="254.16 409.52 261.51 413.93 261.51 408.3" fill="none" stroke="#2f2e41" stroke-miterlimit="10"/>
<rect x="647.8" y="459.24" width="51.54" height="55.68" fill="#914296" data-primary="true"/>
<rect x="647.8" y="459.24" width="51.54" height="55.68" opacity="0.3"/>
<path d="M624.89,478.65s-6.68,24.49,0,36.27h52.3s-6.27-7.46-3.17-21.28Z" fill="#2b032e" data-secondary="true"/>
<path d="M615.34,476.28l9.55,2.37s-6.36,21.31,0,36.27h-14A98.92,98.92,0,0,1,615.34,476.28Z" fill="#2b032e" data-secondary="true"/>
<path d="M615.34,476.28l9.55,2.37s-6.36,21.31,0,36.27h-14A98.92,98.92,0,0,1,615.34,476.28Z" opacity="0.2"/>
<rect x="681.84" y="459.24" width="102.12" height="55.68" fill="#914296" data-primary="true"/>
<ellipse cx="696.81" cy="500.92" rx="23.84" ry="24.64" fill="#914296" data-primary="true"/>
<ellipse cx="696.81" cy="500.92" rx="23.84" ry="24.64" fill="#fff" opacity="0.5"/>
<ellipse cx="703.81" cy="503.29" rx="23.84" ry="24.64" fill="#914296" data-primary="true"/>
<ellipse cx="703.81" cy="503.29" rx="23.84" ry="24.64" fill="#fff" opacity="0.3"/>
<rect x="652.89" y="514.92" width="160.03" height="74.72" fill="#d1d3d4"/>
<rect x="742.28" y="536.87" width="70.63" height="30.22" fill="#f1f2f2"/>
<rect x="601.66" y="514.92" width="52.49" height="74.72" fill="#bcbec0"/>
<rect x="143.09" y="441.75" width="92.69" height="68.43" fill="#2b032e" data-secondary="true"/>
<rect x="116.96" y="441.75" width="26.13" height="68.43" fill="#2b032e" data-secondary="true"/>
<rect x="116.96" y="441.75" width="26.13" height="68.43" opacity="0.2"/>
<path d="M168.15,510.18s-1,1.45-1.76-8.86l49.24-3.52-19.07-45.74s24.69-10.93,46.78,1.83l-1.79,56Z" fill="#914296" data-primary="true"/>
<path d="M168.15,510.18s-1,1.45-1.76-8.86l49.24-3.52-19.07-45.74s24.69-10.93,46.78,1.83l-1.79,56Z" fill="#fff" opacity="0.5"/>
<ellipse cx="112.22" cy="510.24" rx="48.43" ry="42.93" fill="#914296" data-primary="true"/>
<ellipse cx="112.22" cy="510.24" rx="48.43" ry="42.93" opacity="0.2"/>
<ellipse cx="118.93" cy="511.87" rx="44.17" ry="41.3" fill="#914296" data-primary="true"/>
<rect x="105.73" y="510.18" width="169.66" height="79.46" fill="#d1d3d4"/>
<rect x="52.85" y="510.18" width="52.88" height="79.46" fill="#bcbec0"/>
<path d="M275.39,510.18a89.32,89.32,0,0,0-2.66-21.27,42.39,42.39,0,0,0-2-6c-20.12-47.49-65.12-28.08-65.12-28.08l19.11,47.76-51.78,5a8.46,8.46,0,0,0,1.51,2.63Z" fill="#914296" data-primary="true"/>
<path d="M275.39,510.18a89.32,89.32,0,0,0-2.66-21.27,42.39,42.39,0,0,0-2-6c-20.12-47.49-65.12-28.08-65.12-28.08l19.11,47.76-51.78,5a8.46,8.46,0,0,0,1.51,2.63Z" fill="#fff" opacity="0.3"/>
<rect x="20.38" y="589.13" width="811.36" height="1" fill="#914296" data-primary="true"/>
</svg>