 <!DOCTYPE svg PUBLIC "-//W3C//DTD SVG 1.1//EN" "http://www.w3.org/Graphics/SVG/1.1/DTD/svg11.dtd">
<svg id="abd1e5ba-1cea-41ca-a30f-51044956dc15" data-name="Layer 1" xmlns="http://www.w3.org/2000/svg" xmlns:xlink="http://www.w3.org/1999/xlink" width="865.76" height="682.89" viewBox="0 0 865.76 682.89">
<defs>
<clipPath id="ee8a0a0b-399a-4982-bea5-80a30aaf8b5b">
<path d="M753.71,268.07s-14.84-106.52-121-172.31-155.19-.3-208.53,27-82.29-10.34-171.35-28S86.67,253.45,111.9,391.3s80.88,186.92,202.56,218.26,193.66-72,279.73-53.26S782.65,469.62,753.71,268.07Z" fill="none"/>
</clipPath>
<clipPath id="f06df87e-1786-47e3-bbee-007c8e319285">
<path id="aecbde92-7946-4d3b-aeff-90040cd56f7a" data-name="SVGID" d="M548.85,244.4l-40.07,38a4.07,4.07,0,0,0-.12,5.79h0a4.08,4.08,0,0,0,5.86,0l38.1-39.71,8.8,8.8L574.3,244.4l-22.08-22.08-12.33,12.33Z" fill="#914296" data-primary="true"/>
</clipPath>
<clipPath id="e2541f99-a639-4dd7-95c0-3fbb7b40daae">
<path d="M523.76,298.77h38.39a6,6,0,0,1,6,6v.9a0,0,0,0,1,0,0H517.73a0,0,0,0,1,0,0v-.9a6,6,0,0,1,6-6Z" fill="#914296" data-primary="true"/>
</clipPath>
<style xmlns="http://www.w3.org/1999/xhtml">*, ::after, ::before { box-sizing: border-box; }
img, svg { vertical-align: middle; }
</style>
<style xmlns="http://www.w3.org/1999/xhtml">*, body, html { -webkit-font-smoothing: antialiased; }
img, svg { max-width: 100%; }
</style>
</defs>
<path d="M753.71,268.07s-14.84-106.52-121-172.31-155.19-.3-208.53,27-82.29-10.34-171.35-28S86.67,253.45,111.9,391.3s80.88,186.92,202.56,218.26,193.66-72,279.73-53.26S782.65,469.62,753.71,268.07Z" fill="#914296" data-primary="true"/>
<path d="M753.71,268.07s-14.84-106.52-121-172.31-155.19-.3-208.53,27-82.29-10.34-171.35-28S86.67,253.45,111.9,391.3s80.88,186.92,202.56,218.26,193.66-72,279.73-53.26S782.65,469.62,753.71,268.07Z" fill="#fff" opacity="0.8" style="isolation:isolate"/>
<g clip-path="url(#ee8a0a0b-399a-4982-bea5-80a30aaf8b5b)">
<path d="M514.18,486.08l-1-6.07H392l-1,6.07s-7.57,62.06-2,102.44,13.61,72.67,13.61,75.2-.34,47,5.58,74.76c2.57,12,12.11,93.37,12.11,93.37s-.52,16.58-7.59,25.17-11.6,13.61-8.06,15.65,42.39,0,42.39,0,2-3.95,2-14.14-2.52-24.74-2.52-32.8,4-152.93,4-152.93l1-124.15V544l2,4.68,1,124.15s4,144.86,4,152.93-2.52,22.7-2.52,32.8,2,14.14,2,14.14,38.86,2,42.39,0-1-7.07-8.06-15.65-6.69-27-6.69-27,10-81.27,12.11-93.38c5.69-31.44,4.83-70.34,4.83-72.87s8.08-34.83,13.63-75.2S514.18,486.08,514.18,486.08Z" fill="#f9b499"/>
<path d="M513.17,480l-126.74-5.7h0a69.23,69.23,0,0,0-6.14,22.76c-1.88,20.12-4.76,60.87-.7,90.19,5.59,40.37,14.31,73.61,14.31,76.14s4.68,45.43,10.6,73.19c1.21,5.63,4,26.55,6.52,47.15l36.51.32c1.21-45.44,3-111.26,3-111.26l1-124.15V544l2,4.68,1,124.15s1.84,65.88,3.05,111.26l38.28-1.26c2.6-20.59,5.33-41.49,6.34-47.15,5.61-31.45,11.57-69.13,11.57-71.66s15.19-46.37,20.74-86.75-20.28-91.16-20.28-91.16Z" fill="#2b032e" data-secondary="true"/>
<path d="M491.46,257.46s6.27.7,8.71,4.71c0,0-3.66,8.55-8.37,12Z" fill="#914296" data-primary="true"/>
<path d="M491.46,257.46s6.27.7,8.71,4.71c0,0-3.66,8.55-8.37,12Z" opacity="0.2"/>
<path d="M422.34,278.18s-26.4,1.73-41.18,17.61c0,0-3.45,3.45-7.54,12.57,0,0-15.71,26.45-20.53,31.69,0,0-17,18.75-17.81,34.63l-4.09,20.58s-11.63,6.92-11.94,13.83c0,0-5.35,17.29-1.89,21.06,0,0,5.34,13.2,12.26,14.14,0,0,6.6,2.52,11.63.63,0,0,15.56-7.23,20.9-13.36L370,416a9,9,0,0,1,6.75-5.19s4.09-.31,6.45-2.83c0,0,3.82,32.22,3.19,46.47,0,0-3.14,16.55,4.19,19.48,0,0-2.09,5.87,2.73,9.22,0,0,12.15,7.75,34.57,8.17a42.54,42.54,0,0,0,24.31,2s39.91-10.05,48.71-11.31c0,0,9.75,1.57,9.75-7.86,0,0,4.08-26.4,6.28-31.43,0,0,6.6-11.31,9.75-15.08,0,0,5.34,7.54,7.23,15.71,0,0,5.23,11.32,17,14.46a68.17,68.17,0,0,0,6.81,1c15.89,1.61,29.92-11.08,29.27-27a33.63,33.63,0,0,0-1.72-9.16l-13.65-42a.17.17,0,0,0-.33.05c.09,4.54-.48,20.12-12.63,22.44,0,0-19.49,3.86-27-8.09l17.19-71.32s-29.54-18.65-40-24.73S422.34,278.18,422.34,278.18Z" fill="#914296" data-primary="true"/>
<path d="M491,253.72s.63,13.2,1.89,17.6l-16.14,15.61s-6,4.32-11.69,8.83a27.34,27.34,0,0,0-3.56,3.41L431.61,333.5a441.44,441.44,0,0,1,2.63-44.13,36.56,36.56,0,0,1,2.81-10.79c.24-.54.49-1.11.77-1.7a29.34,29.34,0,0,1,1.95-3.62c1-1.63,2.87-5.66,1.58-12.21Z" fill="#f9b499"/>
<path d="M438.53,282.11s2.2-11.47,9-9.43c0,0,15.4,8,26.56,1.89l12.73-6.29L475.3,287.93l1.41-1,16.14-15.61L491,253.72s-11.58,22.26-31.69,19c0,0-9.9-.78-17.92-11.63,0,0,1.54,8.07-1.58,12.21a41.36,41.36,0,0,0-5.65,15.61L431.3,334l6-23.57Z" fill="#f7a48b"/>
<path d="M453.62,308.55s10.63-7.67,23-5.93c0,0,23,2.44,32.09,6.8,0,0,1.74-24.58-8.55-47.25,0,0-3.83,6.63-8,9.59l-15.44,15.17-11.28,8.6a27.75,27.75,0,0,0-4.33,4.13Z" fill="#914296" data-primary="true"/>
<path d="M453.62,308.55s10.63-7.67,23-5.93c0,0,23,2.44,32.09,6.8,0,0,1.74-24.58-8.55-47.25,0,0-3.83,6.63-8,9.59l-15.44,15.17-11.28,8.6a27.75,27.75,0,0,0-4.33,4.13Z" fill="#fff" opacity="0.2"/>
<path d="M441.35,261.05s-3.56,10.17-25.84,20.44c0,0-14.64,3.49-7.65,12.45,0,0,21.31,24.37,23.44,40l2.82-45.1a43.45,43.45,0,0,1,5.65-15.61S443.26,268.86,441.35,261.05Z" fill="#914296" data-primary="true"/>
<path d="M441.35,261.05s-3.56,10.17-25.84,20.44c0,0-14.64,3.49-7.65,12.45,0,0,21.31,24.37,23.44,40l2.82-45.1a43.45,43.45,0,0,1,5.65-15.61S443.26,268.86,441.35,261.05Z" fill="#fff" opacity="0.2"/>
<path d="M531.61,395.37s-4.4-16.14-.84-19.49c0,0,27-16.13,35-4.19,0,0,5.13,6.25,5.5,9,0,0,1.2,20.13-12.63,22.44C558.64,403.12,540.2,407.52,531.61,395.37Z" fill="#914296" data-primary="true"/>
<path d="M531.61,395.37s-4.4-16.14-.84-19.49c0,0,27-16.13,35-4.19,0,0,5.13,6.25,5.5,9,0,0,1.2,20.13-12.63,22.44C558.64,403.12,540.2,407.52,531.61,395.37Z" opacity="0.2"/>
<path d="M529.73,374.2l3.77,23.26s6.28,8.8,25.14,5.66c0,0,7.13-1.26,9.85-7.54,0,0-5.45-17.4-4.19-27.45,0,0,5.87-4.19,8.38-19.07,0,0,2.72-18.23,5.87-27,0,0,4.19-7.33,4.61-22.21l4.32-27.88A5,5,0,0,0,583,266.2h0a5,5,0,0,0-5.38,4l-7.59,37.39,1.92-43.4a4.3,4.3,0,0,0-5.66-4.28h0a4.3,4.3,0,0,0-2.9,3.51l-5.93,44.17-4.4-1.88-.84-35.07a4.15,4.15,0,0,0-4.32-4.05h0a4.15,4.15,0,0,0-4,3.77l-3.13,34.4-4.71-.31-6.85-42.52a4.61,4.61,0,0,0-5-3.85h0a4.61,4.61,0,0,0-4.1,4.95l4.36,54.93s-.21,9.12-7.55,6.18c0,0-24.93-12.78-27.24-6.7,0,0-4,3.56,4.82,9.85,0,0,17.39,11.94,22.84,29.54C517.36,356.81,520.92,368.34,529.73,374.2Z" fill="#f9b499"/>
<path d="M335.33,407.37s-7.38,7.54-4.82,12.21c0,0,2.11,3.92,4.67,5.12,0,0,4.07,4.23,15.53,1.06,0,0,17.49-5.88,13.72-12.36Z" fill="#914296" data-primary="true"/>
<path d="M335.33,407.37s-7.38,7.54-4.82,12.21c0,0,2.11,3.92,4.67,5.12,0,0,4.07,4.23,15.53,1.06,0,0,17.49-5.88,13.72-12.36Z" opacity="0.2"/>
<path d="M335.33,407.37s.61,11-.15,17.33c0,0,4.22,4.23,15.53,1.06,0,0,17.79-6.78,13.72-12.36Z" fill="#f7a48b"/>
<path d="M337.29,412.19s1.66,4.68,7.84,5.73,6.94.76,11.46-1.36a89.21,89.21,0,0,0,12.06-6.78l11-6.78a15.78,15.78,0,0,0,2.87-3.17s7.41-6.76,12.21-9.42a4.14,4.14,0,0,0,2-2.43c.35-1.29.1-2.86-2.81-3.53,0,0-6.93-1.35-19.74,5.43,0,0-7.54-3.16-7.54-22.46,0,0,6.33-32.71.9-35.88,0,0-6.33-5.27-9.8,22.46,0,0-1.81,14.63-5.12,10.1-2.51-3.42-4-19.21-4.55-26.67a3.83,3.83,0,0,0-4.22-3.53h0a3.84,3.84,0,0,0-3.43,4.15l2.19,25.47-3.77-.16-2.6-25.43a3.74,3.74,0,0,0-4.17-3.34h0a3.75,3.75,0,0,0-3.24,4.36l4.83,27.55-1.58-.15L327,337.73a2.08,2.08,0,0,0-2.55-1.65h0a2.08,2.08,0,0,0-1.57,2.07c.23,8.21,1.55,44.53,7.66,58.84,0,0,2.94,7.56,4.77,10.38A21.28,21.28,0,0,1,337.29,412.19Z" fill="#f9b499"/>
<path d="M478.59,486.62s2.89-8.4,13.91-16c0,0,15.22-11.81,7.09-24.67,0,0-4.46-7.61-19.69-13.13,0,0-12.33-4.46-7.87-6.82,0,0,1.31-5,20.73-.53,0,0,24.94.27,23.36-17.06,0,0,1.84-6.3-1.57-21.78a35.61,35.61,0,0,1-.79-16.54s6.83-15.48-13.91-38.58c0,0,12.71,9.94,17.51,25.31,0,0,3.71,11.89,12.37,17.39l.3,2.71s-2.07,4.53,1.58,18.46l6.3,54s-2.47-3.34-4-6c0,0-2.18-9.08-7.23-15.71a56.5,56.5,0,0,0-9.75,15.08s-3.09,10.3-6.28,31.43c0,0,.5,9-9.75,7.86Z" opacity="0.2"/>
<path d="M367.28,373.73s4.94-6.58,10.53-20.06c0,0,4.27-14.13,14.79-23,0,0-10.52,18.41-5.26,46,0,0,9.86,48.33-1.64,61.15L383.21,408s-1.9,2.44-6.45,2.83c0,0-4-.21-6.75,5.19C370,416,369.26,397.4,367.28,373.73Z" opacity="0.2"/>
<circle cx="444.44" cy="377.14" r="45.89" fill="#f1f2f2" opacity="0.87"/>
<polygon points="441.19 348.86 439.42 399.57 446.8 399.57 444.23 348.86 441.19 348.86" fill="#914296" data-primary="true"/>
<path d="M415,376.91l-1-.26,7.56-27.72a.63.63,0,0,1,.62-.47h0a.63.63,0,0,1,.62.47l7.4,27.4-1,.26-7.06-26.14Z" fill="#2b032e" data-secondary="true"/>
<rect x="415.83" y="377.75" width="12.84" height="2.33" fill="#2b032e" data-secondary="true"/>
<path d="M456.78,376.75l-1-.27,7.73-28.32.46-.06h0a.59.59,0,0,1,.56.43L472,376.16l-1,.26L464,350.28Zm7.62-28Z" fill="#2b032e" data-secondary="true"/>
<rect x="457.58" y="377.58" width="12.84" height="2.33" fill="#2b032e" data-secondary="true"/>
<circle cx="354.56" cy="227.54" r="35.42" fill="#914296" data-primary="true"/>
<path d="M363.14,223.49s1.21-5.27-2.76-8.3c0,0-3.55-3.05-7.46-2.35l-2.46-6.1-5.73,2.31,2,5-2.49,1-1.86-4.6-5.72,2.3,1.9,4.74-2.74,1.1,2.31,5.73,2.86-1.16,7.78,19.3-2.49,1,2.21,5.48,2.61-1.06,1.56,3.86,5.35-2.15-1.6-4,2.36-1,1.56,3.86,5.85-2.36-1.56-3.86s9.69-3.61,6.05-13A9.54,9.54,0,0,0,363.14,223.49Zm-16.63-2.85,5.43-2.19a3.89,3.89,0,0,1,2.9,7.22l-5.42,2.19Zm18.66,11.09c.73,1.7-.9,4-3.62,5.08l-7.34,3-2.47-6.14,7.34-3c2.66-1.07,5.37-.6,6.09,1.06Z" fill="#fff"/>
<circle cx="200.93" cy="362.79" r="17.57" fill="#914296" data-primary="true"/>
<path d="M205.19,360.78a4.25,4.25,0,0,0-1.37-4.11,5.06,5.06,0,0,0-3.7-1.17l-1.22-3-2.84,1.14,1,2.47-1.23.5-.92-2.29-2.84,1.15.94,2.35-1.36.54,1.15,2.84,1.42-.57,3.86,9.58-1.24.49,1.1,2.72,1.29-.52.77,1.91,2.66-1.07-.8-2,1.18-.48.77,1.92,2.9-1.17-.77-1.92s4.81-1.79,3-6.45A4.75,4.75,0,0,0,205.19,360.78Zm-8.25-1.41,2.69-1.08a1.93,1.93,0,1,1,1.44,3.58L198.38,363Zm9.26,5.5c.36.84-.45,2-1.8,2.52l-3.64,1.47-1.23-3.05,3.64-1.46c1.33-.53,2.67-.3,3,.52Z" fill="#fff"/>
<circle cx="266.58" cy="445.83" r="37.47" fill="#914296" data-primary="true"/>
<path d="M275.65,441.54s1.28-5.57-2.92-8.77c0,0-3.75-3.24-7.89-2.49l-2.6-6.45-6.06,2.44,2.12,5.27-2.63,1.06-2-4.87-6.06,2.44,2,5-2.89,1.17,2.44,6.06,3-1.22,8.22,20.41-2.63,1.06,2.33,5.8,2.77-1.12,1.64,4.09,5.67-2.29-1.7-4.21,2.5-1,1.65,4.08,6.19-2.49-1.65-4.08s10.25-3.82,6.4-13.75A10.12,10.12,0,0,0,275.65,441.54Zm-17.59-3,5.74-2.31a4.11,4.11,0,1,1,3.07,7.63l-5.73,2.32Zm19.74,11.73c.77,1.8-.95,4.21-3.84,5.38l-7.75,3.12-2.62-6.5,7.76-3.12c2.82-1.13,5.69-.63,6.45,1.12Z" fill="#fff"/>
<ellipse cx="513.34" cy="171.42" rx="19.01" ry="25.28" fill="#2b032e" data-secondary="true"/>
<path d="M505,148.74s19,33,15.49,46.56a33.21,33.21,0,0,1-8.72,1s3.29-22.88-11.8-43.21A53.6,53.6,0,0,1,505,148.74Z" opacity="0.2"/>
<ellipse cx="463.31" cy="207.51" rx="39.08" ry="65.46" fill="#f9b499"/>
<path d="M448.3,142s-27.55-1.4-35.22,33.83c0,0-6.28,30.68,2.44,48.47,0,0,5.36,7.34,2.62,11.86a.24.24,0,0,0,.34.32,14.31,14.31,0,0,0,5.06-10.79,9.58,9.58,0,0,1,4.06-6.89,31.44,31.44,0,0,0,4.58-3.46c3.08-2.91,7.59-7.79,9.14-12.66,0,0,8.71,2.82,17-10.86A42.71,42.71,0,0,0,464,175.6c.81-5.68,3.33-14.47,11.12-14.47,0,0,3.84-.7,5.93,5.23,0,0,8-5.58,12.55,10.46,0,0,.87,32.81,15.62,23.86a6.3,6.3,0,0,1,3.21,1.95s3.49-39.76-19.87-56.5C492.59,146.13,470.27,129.39,448.3,142Z" fill="#2b032e" data-secondary="true"/>
<path d="M467.49,165.09s10.9-14.25,16.14-4.19c0,0,11.84-4.19,10,15.92,0,0-3.78-16.31-12.55-10.46C481.08,166.36,477.55,155.45,467.49,165.09Z" opacity="0.2"/>
<path d="M433.55,209.93l3.07-14c.14-.63.26-1.26.35-1.9.4-2.88,3-15.19,18.37-27.65a32.71,32.71,0,0,0-8.59,18.22S443.82,205.11,433.55,209.93Z" opacity="0.2"/>
<ellipse cx="505.81" cy="213.11" rx="13.15" ry="9.4" transform="translate(179.37 654.35) rotate(-76.35)" fill="#f9b499"/>
<circle cx="329.52" cy="342.75" r="52.8" fill="#f1f2f2" opacity="0.87"/>
<polygon points="306.35 319.42 308.56 379.38 355 377.66 350.83 310.57 315.69 309.59 306.35 319.42" fill="#e6e7e8"/>
<polygon points="315.44 319.17 315.69 309.59 306.35 319.42 315.44 319.17" fill="#914296" data-primary="true"/>
<rect x="313.23" y="323.34" width="33.17" height="1" fill="#914296" data-primary="true"/>
<rect x="313.23" y="329.24" width="33.17" height="1" fill="#914296" data-primary="true"/>
<rect x="313.72" y="334.4" width="33.17" height="1" fill="#914296" data-primary="true"/>
<rect x="313.72" y="340.3" width="33.17" height="1" fill="#914296" data-primary="true"/>
<rect x="312.84" y="345.66" width="33.17" height="1" fill="#914296" data-primary="true"/>
<rect x="312.84" y="351.56" width="33.17" height="1" fill="#914296" data-primary="true"/>
<rect x="313.33" y="356.72" width="33.17" height="1" fill="#914296" data-primary="true"/>
<rect x="313.33" y="362.61" width="15.87" height="1" fill="#914296" data-primary="true"/>
<path d="M337.8,370.05a4.93,4.93,0,1,1,4.93-4.92A4.93,4.93,0,0,1,337.8,370.05Zm0-8.85a3.93,3.93,0,1,0,3.93,3.93A3.93,3.93,0,0,0,337.8,361.2Z" fill="#914296" data-primary="true"/>
<rect x="329.69" y="372.49" width="16.22" height="1" fill="#914296" data-primary="true"/>
<circle cx="543.55" cy="266.89" r="60.41" fill="#f1f2f2" opacity="0.87"/>
<circle cx="543.55" cy="266.89" r="68.25" fill="none" stroke="#e6e7e8" stroke-miterlimit="10"/>
<circle cx="543.55" cy="266.89" r="106.67" fill="none" stroke="#e6e7e8" stroke-miterlimit="10"/>
<path id="efe02387-f5f7-4d5f-a8cf-7265bf8721f4" data-name="SVGID" d="M548.85,244.4l-40.07,38a4.07,4.07,0,0,0-.12,5.79h0a4.08,4.08,0,0,0,5.86,0l38.1-39.71,8.8,8.8L574.3,244.4l-22.08-22.08-12.33,12.33Z" fill="#914296" data-primary="true"/>
<g clip-path="url(#f06df87e-1786-47e3-bbee-007c8e319285)">
<path d="M508.66,288.21s1.53.19,4.2-2.33l37.87-39.44-1.88-2-9-9.75,3.3-3.45L565.35,253l-3.93,4.24-8.8-8.8-38.1,39.71S511.38,291,508.66,288.21Z" fill="#f1f2f2" opacity="0.2"/>
</g>
<rect x="541.96" y="214.38" width="4.65" height="25.14" rx="2.02" transform="translate(319.89 -318.39) rotate(45)" fill="#2b032e" data-secondary="true"/>
<rect x="567.19" y="239.51" width="4.65" height="25.14" rx="2.02" transform="translate(345.06 -328.88) rotate(45)" fill="#2b032e" data-secondary="true"/>
<circle cx="647.42" cy="256.75" r="29.36" fill="#914296" data-primary="true"/>
<path d="M654.18,252.73s.58-4.44-2.93-6.63c0,0-3.16-2.24-6.34-1.35l-2.5-4.84-4.55,2.35,2,4-2,1L636,243.58l-4.55,2.35,2,3.75-2.18,1.13,2.35,4.54,2.28-1.17,7.92,15.31-2,1,2.25,4.34,2.08-1.07,1.58,3.06,4.25-2.19-1.63-3.17,1.87-1,1.59,3.07,4.64-2.41-1.58-3.06s7.71-3.74,4-11.2A7.92,7.92,0,0,0,654.18,252.73Zm-13.95-1,4.31-2.23a3.22,3.22,0,0,1,3,5.73l-4.3,2.23Zm16.26,7.69c.74,1.35-.43,3.36-2.59,4.48l-5.82,3L645.56,262l5.83-3c2.11-1.09,4.38-.92,5.1.39Z" fill="#fff"/>
<rect x="523.24" y="292.31" width="39.82" height="7.4" fill="#2b032e" data-secondary="true"/>
<path d="M523.76,298.77h38.39a6,6,0,0,1,6,6v.9a0,0,0,0,1,0,0H517.73a0,0,0,0,1,0,0v-.9a6,6,0,0,1,6-6Z" fill="#914296" data-primary="true"/>
<g clip-path="url(#e2541f99-a639-4dd7-95c0-3fbb7b40daae)">
<path d="M517.57,302.23H568v-4.4H517.73A21.06,21.06,0,0,0,517.57,302.23Z" fill="#f1f2f2" opacity="0.2"/>
</g>
<rect x="424.5" y="348.36" width="38.03" height="1" fill="#914296" data-primary="true"/>
<path d="M436.39,399.14h13.77a3.09,3.09,0,0,1,3.09,3.09v.46a0,0,0,0,1,0,0H433.31a0,0,0,0,1,0,0v-.46A3.09,3.09,0,0,1,436.39,399.14Z" fill="#2b032e" data-secondary="true"/>
<path d="M431.4,402h23.41a3.68,3.68,0,0,1,3.68,3.68v.55a0,0,0,0,1,0,0H427.73a0,0,0,0,1,0,0v-.55A3.68,3.68,0,0,1,431.4,402Z" fill="#914296" data-primary="true"/>
<path d="M422.46,350.24a2.19,2.19,0,0,1-.36,0,3.2,3.2,0,0,1-2.1-1.48l.65-.38a2.48,2.48,0,0,0,1.57,1.12,2.76,2.76,0,0,0,2.21-1l.52.55A3.73,3.73,0,0,1,422.46,350.24Z" fill="#914296" data-primary="true"/>
<path d="M464.16,350.18a2.43,2.43,0,0,1-.38,0,2.93,2.93,0,0,1-1.91-1.43l.67-.35a2.17,2.17,0,0,0,1.37,1,2.74,2.74,0,0,0,2.21-1l.51.55A3.71,3.71,0,0,1,464.16,350.18Z" fill="#914296" data-primary="true"/>
<rect x="413.91" y="376.14" width="16.85" height="2.41" fill="#914296" data-primary="true"/>
<rect x="455.65" y="375.97" width="16.85" height="2.41" fill="#914296" data-primary="true"/>
</g>
</svg>